<?xml version="1.0" encoding="UTF-8" standalone="no"?>
<!DOCTYPE svg PUBLIC "-//W3C//DTD SVG 1.1//EN" "http://www.w3.org/Graphics/SVG/1.1/DTD/svg11.dtd">
<svg width="100%" height="100%" viewBox="0 0 1400 330" version="1.1" xmlns="http://www.w3.org/2000/svg" xmlns:xlink="http://www.w3.org/1999/xlink" xml:space="preserve" xmlns:serif="http://www.serif.com/" style="fill-rule:evenodd;clip-rule:evenodd;stroke-linejoin:round;stroke-miterlimit:2;">
    <g transform="matrix(3.99366,0,0,3.99366,-1087.2,-1365.83)">
        <g transform="matrix(74.2645,0,0,74.2645,272.704,398.824)">
            <path d="M0.048,-0L0.048,-0.712L0.201,-0.712C0.229,-0.712 0.254,-0.708 0.275,-0.701C0.296,-0.694 0.316,-0.681 0.333,-0.662C0.35,-0.643 0.362,-0.622 0.369,-0.597C0.376,-0.572 0.379,-0.538 0.379,-0.495C0.379,-0.463 0.377,-0.436 0.374,-0.414C0.37,-0.392 0.362,-0.371 0.35,-0.352C0.336,-0.329 0.317,-0.311 0.294,-0.298C0.271,-0.285 0.24,-0.278 0.202,-0.278L0.15,-0.278L0.15,-0L0.048,-0ZM0.15,-0.616L0.15,-0.374L0.199,-0.374C0.22,-0.374 0.236,-0.377 0.247,-0.383C0.258,-0.389 0.267,-0.397 0.272,-0.408C0.277,-0.418 0.281,-0.43 0.282,-0.445C0.283,-0.46 0.283,-0.476 0.283,-0.494C0.283,-0.511 0.283,-0.527 0.282,-0.542C0.281,-0.557 0.278,-0.57 0.273,-0.581C0.268,-0.592 0.26,-0.601 0.249,-0.607C0.238,-0.613 0.223,-0.616 0.203,-0.616L0.15,-0.616Z" style="fill-rule:nonzero;"/>
        </g>
        <g transform="matrix(74.2645,0,0,74.2645,302.929,398.824)">
            <path d="M0.15,-0.616L0.15,-0.394L0.208,-0.394C0.226,-0.394 0.24,-0.397 0.251,-0.402C0.262,-0.407 0.27,-0.414 0.276,-0.423C0.281,-0.432 0.285,-0.444 0.287,-0.458C0.289,-0.471 0.29,-0.487 0.29,-0.505C0.29,-0.523 0.289,-0.539 0.287,-0.553C0.285,-0.566 0.281,-0.578 0.275,-0.588C0.262,-0.607 0.238,-0.616 0.203,-0.616L0.15,-0.616ZM0.048,-0L0.048,-0.712L0.212,-0.712C0.332,-0.712 0.392,-0.642 0.392,-0.503C0.392,-0.461 0.386,-0.425 0.373,-0.396C0.36,-0.367 0.337,-0.343 0.304,-0.325L0.414,-0L0.306,-0L0.211,-0.304L0.15,-0.304L0.15,-0L0.048,-0Z" style="fill-rule:nonzero;"/>
        </g>
        <g transform="matrix(74.2645,0,0,74.2645,334.566,398.824)">
            <path d="M0.048,-0L0.048,-0.712L0.352,-0.712L0.352,-0.616L0.15,-0.616L0.15,-0.407L0.326,-0.407L0.326,-0.311L0.15,-0.311L0.15,-0.102L0.352,-0.102L0.352,-0L0.048,-0Z" style="fill-rule:nonzero;"/>
        </g>
        <g transform="matrix(74.2645,0,0,74.2645,362.044,398.824)">
            <path d="M0.372,-0.203L0.372,-0.159C0.372,-0.137 0.368,-0.116 0.36,-0.097C0.351,-0.077 0.34,-0.059 0.325,-0.044C0.31,-0.029 0.293,-0.017 0.274,-0.008C0.254,0.002 0.233,0.006 0.21,0.006C0.191,0.006 0.171,0.003 0.151,-0.002C0.131,-0.007 0.113,-0.017 0.097,-0.03C0.081,-0.043 0.068,-0.061 0.058,-0.082C0.047,-0.102 0.042,-0.129 0.042,-0.162L0.042,-0.554C0.042,-0.577 0.046,-0.599 0.054,-0.619C0.062,-0.639 0.073,-0.656 0.088,-0.671C0.103,-0.686 0.12,-0.697 0.141,-0.706C0.161,-0.714 0.183,-0.718 0.208,-0.718C0.256,-0.718 0.295,-0.702 0.325,-0.671C0.34,-0.656 0.351,-0.638 0.36,-0.617C0.368,-0.596 0.372,-0.573 0.372,-0.548L0.372,-0.508L0.27,-0.508L0.27,-0.542C0.27,-0.562 0.264,-0.579 0.253,-0.594C0.242,-0.609 0.226,-0.616 0.207,-0.616C0.182,-0.616 0.165,-0.608 0.157,-0.593C0.148,-0.577 0.144,-0.557 0.144,-0.533L0.144,-0.169C0.144,-0.148 0.149,-0.131 0.158,-0.117C0.167,-0.103 0.183,-0.096 0.206,-0.096C0.213,-0.096 0.22,-0.097 0.228,-0.1C0.235,-0.102 0.242,-0.106 0.249,-0.111C0.255,-0.116 0.26,-0.124 0.264,-0.133C0.268,-0.142 0.27,-0.154 0.27,-0.168L0.27,-0.203L0.372,-0.203Z" style="fill-rule:nonzero;"/>
        </g>
        <g transform="matrix(74.2645,0,0,74.2645,392.27,398.824)">
            <path d="M0.048,-0L0.048,-0.712L0.352,-0.712L0.352,-0.616L0.15,-0.616L0.15,-0.407L0.326,-0.407L0.326,-0.311L0.15,-0.311L0.15,-0.102L0.352,-0.102L0.352,-0L0.048,-0Z" style="fill-rule:nonzero;"/>
        </g>
        <g transform="matrix(74.2645,0,0,74.2645,419.747,398.824)">
            <path d="M0.048,-0L0.048,-0.712L0.15,-0.712L0.15,-0.102L0.352,-0.102L0.352,-0L0.048,-0Z" style="fill-rule:nonzero;"/>
        </g>
        <g transform="matrix(74.2645,0,0,74.2645,447.225,398.824)">
            <path d="M0.048,-0L0.048,-0.712L0.352,-0.712L0.352,-0.616L0.15,-0.616L0.15,-0.407L0.326,-0.407L0.326,-0.311L0.15,-0.311L0.15,-0.102L0.352,-0.102L0.352,-0L0.048,-0Z" style="fill-rule:nonzero;"/>
        </g>
        <g transform="matrix(74.2645,0,0,74.2645,474.703,398.824)">
            <path d="M0.15,-0.616L0.15,-0.394L0.208,-0.394C0.226,-0.394 0.24,-0.397 0.251,-0.402C0.262,-0.407 0.27,-0.414 0.276,-0.423C0.281,-0.432 0.285,-0.444 0.287,-0.458C0.289,-0.471 0.29,-0.487 0.29,-0.505C0.29,-0.523 0.289,-0.539 0.287,-0.553C0.285,-0.566 0.281,-0.578 0.275,-0.588C0.262,-0.607 0.238,-0.616 0.203,-0.616L0.15,-0.616ZM0.048,-0L0.048,-0.712L0.212,-0.712C0.332,-0.712 0.392,-0.642 0.392,-0.503C0.392,-0.461 0.386,-0.425 0.373,-0.396C0.36,-0.367 0.337,-0.343 0.304,-0.325L0.414,-0L0.306,-0L0.211,-0.304L0.15,-0.304L0.15,-0L0.048,-0Z" style="fill-rule:nonzero;"/>
        </g>
        <g transform="matrix(74.2645,0,0,74.2645,506.34,398.824)">
            <path d="M0.254,-0.249L0.204,-0.507L0.202,-0.507L0.152,-0.249L0.254,-0.249ZM0.002,-0L0.161,-0.712L0.246,-0.712L0.405,-0L0.303,-0L0.273,-0.153L0.134,-0.153L0.104,-0L0.002,-0Z" style="fill-rule:nonzero;"/>
        </g>
        <g transform="matrix(74.2645,0,0,74.2645,532.481,398.824)">
            <path d="M0.115,-0L0.115,-0.616L-0.003,-0.616L-0.003,-0.712L0.335,-0.712L0.335,-0.616L0.217,-0.616L0.217,-0L0.115,-0Z" style="fill-rule:nonzero;"/>
        </g>
        <g transform="matrix(74.2645,0,0,74.2645,556.246,398.824)">
            <path d="M0.042,-0.544C0.042,-0.573 0.047,-0.598 0.057,-0.62C0.067,-0.642 0.08,-0.66 0.097,-0.675C0.113,-0.689 0.131,-0.7 0.152,-0.707C0.172,-0.714 0.192,-0.718 0.213,-0.718C0.234,-0.718 0.254,-0.714 0.275,-0.707C0.295,-0.7 0.313,-0.689 0.33,-0.675C0.346,-0.66 0.359,-0.642 0.369,-0.62C0.379,-0.598 0.384,-0.573 0.384,-0.544L0.384,-0.168C0.384,-0.138 0.379,-0.112 0.369,-0.091C0.359,-0.07 0.346,-0.052 0.33,-0.038C0.313,-0.023 0.295,-0.012 0.275,-0.005C0.254,0.002 0.234,0.006 0.213,0.006C0.192,0.006 0.172,0.002 0.152,-0.005C0.131,-0.012 0.113,-0.023 0.097,-0.038C0.08,-0.052 0.067,-0.07 0.057,-0.091C0.047,-0.112 0.042,-0.138 0.042,-0.168L0.042,-0.544ZM0.144,-0.168C0.144,-0.143 0.151,-0.125 0.165,-0.114C0.178,-0.102 0.194,-0.096 0.213,-0.096C0.232,-0.096 0.248,-0.102 0.262,-0.114C0.275,-0.125 0.282,-0.143 0.282,-0.168L0.282,-0.544C0.282,-0.569 0.275,-0.587 0.262,-0.599C0.248,-0.61 0.232,-0.616 0.213,-0.616C0.194,-0.616 0.178,-0.61 0.165,-0.599C0.151,-0.587 0.144,-0.569 0.144,-0.544L0.144,-0.168Z" style="fill-rule:nonzero;"/>
        </g>
        <g transform="matrix(74.2645,0,0,74.2645,587.882,398.824)">
            <path d="M0.15,-0.616L0.15,-0.394L0.208,-0.394C0.226,-0.394 0.24,-0.397 0.251,-0.402C0.262,-0.407 0.27,-0.414 0.276,-0.423C0.281,-0.432 0.285,-0.444 0.287,-0.458C0.289,-0.471 0.29,-0.487 0.29,-0.505C0.29,-0.523 0.289,-0.539 0.287,-0.553C0.285,-0.566 0.281,-0.578 0.275,-0.588C0.262,-0.607 0.238,-0.616 0.203,-0.616L0.15,-0.616ZM0.048,-0L0.048,-0.712L0.212,-0.712C0.332,-0.712 0.392,-0.642 0.392,-0.503C0.392,-0.461 0.386,-0.425 0.373,-0.396C0.36,-0.367 0.337,-0.343 0.304,-0.325L0.414,-0L0.306,-0L0.211,-0.304L0.15,-0.304L0.15,-0L0.048,-0Z" style="fill-rule:nonzero;"/>
        </g>
    </g>
    <g transform="matrix(1.1122,0,0,1.1122,-142.039,-165.436)">
        <g transform="matrix(57.0833,0,0,57.0833,137.485,422.19)">
            <path d="M0.036,-0.357C0.036,-0.409 0.044,-0.458 0.059,-0.504C0.074,-0.549 0.096,-0.589 0.126,-0.623C0.155,-0.656 0.19,-0.683 0.233,-0.702C0.275,-0.721 0.323,-0.731 0.376,-0.731C0.418,-0.731 0.454,-0.725 0.485,-0.715C0.516,-0.704 0.542,-0.69 0.563,-0.674C0.584,-0.657 0.601,-0.639 0.614,-0.62C0.627,-0.601 0.638,-0.583 0.645,-0.566C0.652,-0.549 0.656,-0.534 0.659,-0.522C0.662,-0.509 0.663,-0.502 0.663,-0.501L0.619,-0.501C0.614,-0.531 0.605,-0.558 0.59,-0.582C0.575,-0.605 0.557,-0.625 0.535,-0.642C0.513,-0.659 0.489,-0.671 0.462,-0.68C0.435,-0.689 0.406,-0.693 0.376,-0.693C0.329,-0.693 0.288,-0.684 0.251,-0.666C0.214,-0.648 0.183,-0.624 0.158,-0.594C0.133,-0.563 0.113,-0.528 0.1,-0.487C0.087,-0.446 0.08,-0.403 0.08,-0.357C0.08,-0.311 0.087,-0.268 0.1,-0.227C0.113,-0.186 0.133,-0.151 0.158,-0.121C0.183,-0.09 0.214,-0.066 0.251,-0.048C0.288,-0.03 0.329,-0.021 0.376,-0.021C0.411,-0.021 0.443,-0.028 0.474,-0.043C0.504,-0.057 0.53,-0.076 0.553,-0.1C0.576,-0.123 0.594,-0.151 0.608,-0.182C0.621,-0.213 0.629,-0.245 0.631,-0.278L0.675,-0.278C0.671,-0.235 0.661,-0.196 0.644,-0.16C0.626,-0.124 0.605,-0.093 0.579,-0.067C0.552,-0.04 0.522,-0.02 0.487,-0.005C0.452,0.01 0.415,0.017 0.376,0.017C0.323,0.017 0.275,0.007 0.233,-0.012C0.19,-0.031 0.155,-0.058 0.126,-0.092C0.096,-0.125 0.074,-0.165 0.059,-0.211C0.044,-0.256 0.036,-0.305 0.036,-0.357Z" style="fill-rule:nonzero;"/>
        </g>
        <g transform="matrix(57.0833,0,0,57.0833,177.672,422.19)">
            <path d="M0.032,-0.257C0.032,-0.294 0.037,-0.328 0.048,-0.361C0.058,-0.393 0.073,-0.421 0.093,-0.446C0.113,-0.471 0.138,-0.49 0.167,-0.505C0.196,-0.519 0.23,-0.526 0.268,-0.526C0.306,-0.526 0.34,-0.519 0.369,-0.505C0.398,-0.49 0.423,-0.471 0.443,-0.446C0.463,-0.421 0.478,-0.393 0.489,-0.361C0.499,-0.328 0.504,-0.294 0.504,-0.257C0.504,-0.22 0.499,-0.186 0.489,-0.153C0.478,-0.12 0.463,-0.092 0.443,-0.068C0.423,-0.043 0.398,-0.024 0.369,-0.01C0.34,0.005 0.306,0.012 0.268,0.012C0.23,0.012 0.196,0.005 0.167,-0.01C0.138,-0.024 0.113,-0.043 0.093,-0.068C0.073,-0.092 0.058,-0.12 0.048,-0.153C0.037,-0.186 0.032,-0.22 0.032,-0.257ZM0.07,-0.257C0.07,-0.226 0.074,-0.197 0.083,-0.169C0.092,-0.14 0.104,-0.115 0.121,-0.093C0.138,-0.071 0.158,-0.054 0.183,-0.041C0.208,-0.028 0.236,-0.021 0.268,-0.021C0.3,-0.021 0.328,-0.028 0.353,-0.041C0.378,-0.054 0.398,-0.071 0.415,-0.093C0.432,-0.115 0.444,-0.14 0.453,-0.169C0.462,-0.197 0.466,-0.226 0.466,-0.257C0.466,-0.288 0.462,-0.317 0.453,-0.346C0.444,-0.374 0.432,-0.399 0.415,-0.421C0.398,-0.443 0.378,-0.46 0.353,-0.474C0.328,-0.487 0.3,-0.493 0.268,-0.493C0.236,-0.493 0.208,-0.487 0.183,-0.474C0.158,-0.46 0.138,-0.443 0.121,-0.421C0.104,-0.399 0.092,-0.374 0.083,-0.346C0.074,-0.317 0.07,-0.288 0.07,-0.257Z" style="fill-rule:nonzero;"/>
        </g>
        <g transform="matrix(57.0833,0,0,57.0833,208.326,422.19)">
            <path d="M0.057,-0.514L0.095,-0.514L0.095,-0.409L0.097,-0.409C0.101,-0.425 0.108,-0.44 0.118,-0.455C0.128,-0.469 0.14,-0.481 0.155,-0.492C0.169,-0.503 0.185,-0.511 0.203,-0.517C0.22,-0.523 0.239,-0.526 0.258,-0.526C0.283,-0.526 0.304,-0.523 0.322,-0.517C0.34,-0.51 0.355,-0.502 0.368,-0.492C0.381,-0.481 0.391,-0.47 0.398,-0.457C0.405,-0.444 0.41,-0.43 0.413,-0.417L0.415,-0.417C0.43,-0.453 0.451,-0.48 0.477,-0.499C0.502,-0.517 0.536,-0.526 0.578,-0.526C0.601,-0.526 0.623,-0.523 0.643,-0.516C0.662,-0.509 0.679,-0.498 0.694,-0.484C0.708,-0.469 0.719,-0.451 0.727,-0.429C0.735,-0.407 0.739,-0.381 0.739,-0.351L0.739,-0L0.701,-0L0.701,-0.352C0.701,-0.385 0.696,-0.41 0.686,-0.429C0.676,-0.448 0.664,-0.462 0.651,-0.472C0.637,-0.481 0.623,-0.487 0.61,-0.49C0.596,-0.492 0.585,-0.493 0.578,-0.493C0.555,-0.493 0.533,-0.489 0.514,-0.481C0.494,-0.473 0.477,-0.461 0.463,-0.445C0.448,-0.429 0.437,-0.409 0.429,-0.386C0.421,-0.362 0.417,-0.335 0.417,-0.304L0.417,-0L0.379,-0L0.379,-0.352C0.379,-0.384 0.374,-0.409 0.365,-0.429C0.355,-0.448 0.343,-0.462 0.331,-0.471C0.318,-0.48 0.304,-0.486 0.291,-0.489C0.277,-0.492 0.266,-0.493 0.258,-0.493C0.24,-0.493 0.221,-0.489 0.202,-0.482C0.183,-0.475 0.165,-0.463 0.149,-0.448C0.133,-0.433 0.12,-0.413 0.11,-0.389C0.1,-0.365 0.095,-0.337 0.095,-0.304L0.095,-0L0.057,-0L0.057,-0.514Z" style="fill-rule:nonzero;"/>
        </g>
        <g transform="matrix(57.0833,0,0,57.0833,253.764,422.19)">
            <path d="M0.057,-0.514L0.095,-0.514L0.095,-0.409L0.097,-0.409C0.101,-0.425 0.108,-0.44 0.118,-0.455C0.128,-0.469 0.14,-0.481 0.155,-0.492C0.169,-0.503 0.185,-0.511 0.203,-0.517C0.22,-0.523 0.239,-0.526 0.258,-0.526C0.283,-0.526 0.304,-0.523 0.322,-0.517C0.34,-0.51 0.355,-0.502 0.368,-0.492C0.381,-0.481 0.391,-0.47 0.398,-0.457C0.405,-0.444 0.41,-0.43 0.413,-0.417L0.415,-0.417C0.43,-0.453 0.451,-0.48 0.477,-0.499C0.502,-0.517 0.536,-0.526 0.578,-0.526C0.601,-0.526 0.623,-0.523 0.643,-0.516C0.662,-0.509 0.679,-0.498 0.694,-0.484C0.708,-0.469 0.719,-0.451 0.727,-0.429C0.735,-0.407 0.739,-0.381 0.739,-0.351L0.739,-0L0.701,-0L0.701,-0.352C0.701,-0.385 0.696,-0.41 0.686,-0.429C0.676,-0.448 0.664,-0.462 0.651,-0.472C0.637,-0.481 0.623,-0.487 0.61,-0.49C0.596,-0.492 0.585,-0.493 0.578,-0.493C0.555,-0.493 0.533,-0.489 0.514,-0.481C0.494,-0.473 0.477,-0.461 0.463,-0.445C0.448,-0.429 0.437,-0.409 0.429,-0.386C0.421,-0.362 0.417,-0.335 0.417,-0.304L0.417,-0L0.379,-0L0.379,-0.352C0.379,-0.384 0.374,-0.409 0.365,-0.429C0.355,-0.448 0.343,-0.462 0.331,-0.471C0.318,-0.48 0.304,-0.486 0.291,-0.489C0.277,-0.492 0.266,-0.493 0.258,-0.493C0.24,-0.493 0.221,-0.489 0.202,-0.482C0.183,-0.475 0.165,-0.463 0.149,-0.448C0.133,-0.433 0.12,-0.413 0.11,-0.389C0.1,-0.365 0.095,-0.337 0.095,-0.304L0.095,-0L0.057,-0L0.057,-0.514Z" style="fill-rule:nonzero;"/>
        </g>
        <g transform="matrix(57.0833,0,0,57.0833,299.202,422.19)">
            <path d="M0.463,-0L0.425,-0L0.425,-0.11L0.423,-0.11C0.416,-0.091 0.407,-0.074 0.395,-0.059C0.382,-0.044 0.368,-0.031 0.352,-0.02C0.335,-0.009 0.317,-0.001 0.298,0.004C0.279,0.009 0.259,0.012 0.239,0.012C0.209,0.012 0.184,0.008 0.163,0.001C0.141,-0.006 0.124,-0.016 0.111,-0.028C0.098,-0.04 0.087,-0.054 0.08,-0.069C0.072,-0.084 0.066,-0.099 0.063,-0.114C0.06,-0.129 0.058,-0.144 0.057,-0.159C0.056,-0.173 0.056,-0.185 0.056,-0.196L0.056,-0.514L0.094,-0.514L0.094,-0.189C0.094,-0.176 0.095,-0.16 0.097,-0.141C0.099,-0.122 0.105,-0.103 0.115,-0.086C0.124,-0.068 0.139,-0.053 0.158,-0.04C0.177,-0.027 0.205,-0.021 0.24,-0.021C0.269,-0.021 0.295,-0.026 0.318,-0.037C0.341,-0.048 0.36,-0.063 0.376,-0.082C0.392,-0.1 0.404,-0.123 0.413,-0.15C0.421,-0.176 0.425,-0.205 0.425,-0.236L0.425,-0.514L0.463,-0.514L0.463,-0Z" style="fill-rule:nonzero;"/>
        </g>
        <g transform="matrix(57.0833,0,0,57.0833,328.829,422.19)">
            <path d="M0.056,-0.514L0.094,-0.514L0.094,-0.404L0.096,-0.404C0.103,-0.423 0.112,-0.44 0.125,-0.456C0.137,-0.471 0.151,-0.483 0.168,-0.494C0.184,-0.505 0.202,-0.513 0.221,-0.518C0.24,-0.523 0.26,-0.526 0.28,-0.526C0.31,-0.526 0.335,-0.522 0.357,-0.515C0.378,-0.508 0.395,-0.498 0.408,-0.486C0.421,-0.474 0.432,-0.46 0.44,-0.446C0.447,-0.431 0.453,-0.415 0.456,-0.4C0.459,-0.385 0.461,-0.37 0.462,-0.356C0.463,-0.341 0.463,-0.329 0.463,-0.318L0.463,-0L0.425,-0L0.425,-0.325C0.425,-0.338 0.424,-0.354 0.422,-0.373C0.42,-0.392 0.414,-0.411 0.405,-0.429C0.395,-0.446 0.38,-0.461 0.361,-0.474C0.341,-0.487 0.314,-0.493 0.279,-0.493C0.25,-0.493 0.224,-0.488 0.201,-0.477C0.178,-0.466 0.159,-0.452 0.143,-0.433C0.127,-0.413 0.115,-0.391 0.107,-0.365C0.098,-0.338 0.094,-0.309 0.094,-0.278L0.094,-0L0.056,-0L0.056,-0.514Z" style="fill-rule:nonzero;"/>
        </g>
        <g transform="matrix(57.0833,0,0,57.0833,358.455,422.19)">
            <path d="M0.065,-0.611L0.065,-0.714L0.103,-0.714L0.103,-0.611L0.065,-0.611ZM0.065,-0L0.065,-0.514L0.103,-0.514L0.103,-0L0.065,-0Z" style="fill-rule:nonzero;"/>
        </g>
        <g transform="matrix(57.0833,0,0,57.0833,368.045,422.19)">
            <path d="M0.245,-0.481L0.133,-0.481L0.133,-0.122C0.133,-0.101 0.135,-0.085 0.14,-0.073C0.145,-0.061 0.152,-0.052 0.162,-0.046C0.171,-0.039 0.183,-0.035 0.197,-0.034C0.21,-0.033 0.226,-0.032 0.244,-0.033L0.244,-0C0.225,0.001 0.206,0.001 0.188,-0.001C0.169,-0.002 0.153,-0.007 0.139,-0.016C0.125,-0.024 0.114,-0.036 0.106,-0.053C0.097,-0.07 0.094,-0.093 0.095,-0.122L0.095,-0.481L0,-0.481L0,-0.514L0.095,-0.514L0.095,-0.674L0.133,-0.674L0.133,-0.514L0.245,-0.514L0.245,-0.481Z" style="fill-rule:nonzero;"/>
        </g>
        <g transform="matrix(57.0833,0,0,57.0833,382.829,422.19)">
            <path d="M-0.006,-0.514L0.039,-0.514L0.23,-0.045L0.406,-0.514L0.449,-0.514L0.229,0.055C0.218,0.08 0.209,0.102 0.2,0.121C0.191,0.139 0.18,0.152 0.169,0.161C0.156,0.172 0.14,0.178 0.122,0.181C0.103,0.183 0.079,0.184 0.049,0.184L0.049,0.151C0.076,0.151 0.098,0.149 0.113,0.145C0.128,0.14 0.143,0.131 0.156,0.118C0.163,0.111 0.171,0.097 0.179,0.078C0.187,0.058 0.197,0.031 0.209,-0.003L-0.006,-0.514Z" style="fill-rule:nonzero;"/>
        </g>
        <g transform="matrix(57.0833,0,0,57.0833,420.048,422.19)">
            <path d="M0.529,-0.51C0.528,-0.541 0.521,-0.567 0.51,-0.59C0.498,-0.613 0.482,-0.632 0.462,-0.647C0.442,-0.662 0.418,-0.674 0.391,-0.682C0.363,-0.689 0.333,-0.693 0.3,-0.693C0.28,-0.693 0.259,-0.691 0.236,-0.686C0.213,-0.681 0.191,-0.673 0.172,-0.662C0.152,-0.65 0.136,-0.634 0.123,-0.615C0.11,-0.595 0.104,-0.57 0.104,-0.541C0.104,-0.512 0.111,-0.489 0.125,-0.471C0.139,-0.453 0.157,-0.439 0.18,-0.428C0.203,-0.417 0.229,-0.408 0.258,-0.401C0.287,-0.394 0.317,-0.388 0.347,-0.382C0.378,-0.376 0.408,-0.369 0.437,-0.361C0.466,-0.352 0.492,-0.341 0.515,-0.327C0.538,-0.312 0.556,-0.294 0.57,-0.271C0.584,-0.248 0.591,-0.219 0.591,-0.184C0.591,-0.147 0.583,-0.115 0.567,-0.09C0.551,-0.065 0.531,-0.044 0.507,-0.028C0.482,-0.012 0.455,-0 0.426,0.007C0.396,0.014 0.367,0.017 0.34,0.017C0.298,0.017 0.259,0.013 0.222,0.004C0.185,-0.006 0.153,-0.02 0.126,-0.041C0.099,-0.061 0.077,-0.087 0.062,-0.119C0.046,-0.151 0.038,-0.19 0.039,-0.236L0.083,-0.236C0.081,-0.197 0.087,-0.164 0.1,-0.137C0.113,-0.11 0.132,-0.087 0.156,-0.07C0.179,-0.053 0.207,-0.04 0.239,-0.033C0.271,-0.025 0.305,-0.021 0.34,-0.021C0.361,-0.021 0.384,-0.024 0.409,-0.029C0.433,-0.034 0.455,-0.043 0.476,-0.056C0.496,-0.069 0.513,-0.085 0.527,-0.106C0.54,-0.127 0.547,-0.153 0.547,-0.184C0.547,-0.214 0.54,-0.239 0.526,-0.258C0.512,-0.277 0.494,-0.292 0.471,-0.304C0.448,-0.315 0.422,-0.325 0.393,-0.332C0.364,-0.339 0.334,-0.345 0.303,-0.351C0.273,-0.357 0.243,-0.364 0.214,-0.372C0.185,-0.38 0.159,-0.391 0.136,-0.405C0.113,-0.418 0.095,-0.436 0.081,-0.458C0.067,-0.479 0.06,-0.507 0.06,-0.541C0.06,-0.575 0.067,-0.604 0.082,-0.629C0.096,-0.653 0.115,-0.673 0.138,-0.688C0.161,-0.703 0.186,-0.713 0.215,-0.721C0.244,-0.728 0.272,-0.731 0.3,-0.731C0.337,-0.731 0.372,-0.727 0.405,-0.719C0.437,-0.71 0.465,-0.697 0.49,-0.68C0.514,-0.662 0.533,-0.639 0.548,-0.611C0.563,-0.583 0.571,-0.549 0.573,-0.51L0.529,-0.51Z" style="fill-rule:nonzero;"/>
        </g>
        <g transform="matrix(57.0833,0,0,57.0833,456.01,422.19)">
            <path d="M0.103,-0.396L0.105,-0.396C0.109,-0.409 0.116,-0.423 0.125,-0.438C0.134,-0.453 0.147,-0.468 0.162,-0.481C0.177,-0.494 0.196,-0.504 0.218,-0.513C0.239,-0.522 0.264,-0.526 0.292,-0.526C0.331,-0.526 0.366,-0.519 0.395,-0.504C0.424,-0.489 0.448,-0.47 0.467,-0.445C0.486,-0.42 0.5,-0.392 0.509,-0.359C0.518,-0.326 0.523,-0.292 0.523,-0.256C0.523,-0.217 0.518,-0.181 0.509,-0.148C0.5,-0.115 0.486,-0.087 0.467,-0.064C0.448,-0.04 0.424,-0.021 0.395,-0.008C0.366,0.005 0.331,0.012 0.292,0.012C0.249,0.012 0.211,0.003 0.178,-0.016C0.145,-0.035 0.12,-0.065 0.105,-0.107L0.103,-0.107L0.103,0.184L0.065,0.184L0.065,-0.514L0.103,-0.514L0.103,-0.396ZM0.292,-0.021C0.325,-0.021 0.354,-0.027 0.379,-0.04C0.403,-0.053 0.423,-0.07 0.439,-0.091C0.454,-0.112 0.466,-0.137 0.474,-0.166C0.481,-0.194 0.485,-0.224 0.485,-0.256C0.485,-0.285 0.481,-0.314 0.474,-0.343C0.467,-0.371 0.455,-0.396 0.44,-0.419C0.425,-0.441 0.405,-0.459 0.381,-0.473C0.356,-0.486 0.327,-0.493 0.292,-0.493C0.258,-0.493 0.229,-0.486 0.205,-0.473C0.181,-0.46 0.162,-0.442 0.147,-0.42C0.131,-0.398 0.121,-0.373 0.114,-0.345C0.107,-0.316 0.104,-0.287 0.104,-0.256C0.104,-0.225 0.107,-0.196 0.113,-0.168C0.119,-0.139 0.129,-0.114 0.144,-0.093C0.158,-0.071 0.177,-0.054 0.202,-0.041C0.226,-0.028 0.256,-0.021 0.292,-0.021Z" style="fill-rule:nonzero;"/>
        </g>
        <g transform="matrix(57.0833,0,0,57.0833,487.749,422.19)">
            <path d="M0.397,-0.102L0.395,-0.102C0.389,-0.087 0.38,-0.072 0.369,-0.059C0.358,-0.045 0.344,-0.033 0.328,-0.022C0.311,-0.011 0.293,-0.003 0.272,0.003C0.251,0.009 0.229,0.012 0.204,0.012C0.149,0.012 0.107,0 0.077,-0.024C0.047,-0.047 0.032,-0.084 0.032,-0.133C0.032,-0.163 0.038,-0.188 0.05,-0.207C0.062,-0.226 0.077,-0.241 0.096,-0.252C0.114,-0.263 0.134,-0.27 0.157,-0.275C0.179,-0.28 0.2,-0.283 0.221,-0.285L0.28,-0.29C0.307,-0.292 0.329,-0.295 0.345,-0.3C0.36,-0.304 0.372,-0.31 0.38,-0.318C0.388,-0.325 0.393,-0.335 0.395,-0.347C0.397,-0.359 0.398,-0.374 0.398,-0.392C0.398,-0.406 0.395,-0.419 0.39,-0.431C0.385,-0.443 0.376,-0.454 0.365,-0.463C0.354,-0.472 0.339,-0.48 0.321,-0.485C0.303,-0.49 0.281,-0.493 0.255,-0.493C0.209,-0.493 0.172,-0.482 0.144,-0.459C0.115,-0.436 0.1,-0.402 0.097,-0.356L0.059,-0.356C0.062,-0.413 0.08,-0.455 0.114,-0.484C0.147,-0.512 0.195,-0.526 0.257,-0.526C0.319,-0.526 0.364,-0.514 0.393,-0.49C0.421,-0.465 0.435,-0.433 0.435,-0.394L0.435,-0.095C0.435,-0.088 0.435,-0.08 0.436,-0.073C0.436,-0.066 0.437,-0.059 0.439,-0.053C0.441,-0.047 0.444,-0.042 0.449,-0.039C0.454,-0.035 0.46,-0.033 0.469,-0.033C0.476,-0.033 0.485,-0.034 0.497,-0.036L0.497,-0.004C0.487,-0.001 0.477,-0 0.466,-0C0.451,-0 0.439,-0.002 0.43,-0.006C0.421,-0.01 0.414,-0.015 0.409,-0.022C0.404,-0.029 0.401,-0.037 0.4,-0.046C0.398,-0.055 0.397,-0.064 0.397,-0.075L0.397,-0.102ZM0.397,-0.292C0.388,-0.281 0.374,-0.273 0.355,-0.269C0.335,-0.265 0.314,-0.262 0.291,-0.26L0.227,-0.254C0.208,-0.252 0.19,-0.249 0.171,-0.246C0.152,-0.242 0.136,-0.236 0.121,-0.227C0.106,-0.218 0.093,-0.206 0.084,-0.192C0.075,-0.177 0.07,-0.157 0.07,-0.133C0.07,-0.095 0.082,-0.067 0.106,-0.049C0.13,-0.03 0.163,-0.021 0.205,-0.021C0.248,-0.021 0.283,-0.029 0.308,-0.045C0.333,-0.06 0.353,-0.078 0.366,-0.099C0.379,-0.119 0.388,-0.138 0.392,-0.158C0.395,-0.177 0.397,-0.189 0.397,-0.196L0.397,-0.292Z" style="fill-rule:nonzero;"/>
        </g>
        <g transform="matrix(57.0833,0,0,57.0833,516.29,422.19)">
            <path d="M0.443,-0.355C0.441,-0.378 0.435,-0.398 0.426,-0.415C0.416,-0.432 0.403,-0.447 0.388,-0.458C0.373,-0.469 0.355,-0.478 0.335,-0.484C0.314,-0.49 0.292,-0.493 0.269,-0.493C0.237,-0.493 0.209,-0.487 0.184,-0.474C0.159,-0.46 0.139,-0.443 0.122,-0.422C0.105,-0.4 0.093,-0.375 0.084,-0.348C0.075,-0.32 0.071,-0.291 0.071,-0.262C0.071,-0.227 0.075,-0.195 0.083,-0.166C0.091,-0.137 0.103,-0.111 0.12,-0.09C0.137,-0.068 0.157,-0.051 0.182,-0.039C0.207,-0.027 0.236,-0.021 0.269,-0.021C0.293,-0.021 0.315,-0.025 0.336,-0.033C0.356,-0.041 0.374,-0.052 0.39,-0.066C0.405,-0.08 0.418,-0.097 0.428,-0.117C0.438,-0.136 0.445,-0.158 0.448,-0.181L0.486,-0.181C0.482,-0.15 0.474,-0.123 0.461,-0.099C0.448,-0.075 0.432,-0.055 0.413,-0.039C0.394,-0.022 0.372,-0.01 0.347,-0.001C0.322,0.008 0.296,0.012 0.269,0.012C0.227,0.012 0.191,0.005 0.162,-0.011C0.132,-0.025 0.108,-0.046 0.089,-0.071C0.069,-0.096 0.055,-0.126 0.047,-0.159C0.038,-0.192 0.033,-0.226 0.033,-0.262C0.033,-0.298 0.038,-0.332 0.049,-0.364C0.059,-0.396 0.074,-0.424 0.094,-0.448C0.114,-0.472 0.139,-0.491 0.168,-0.505C0.197,-0.519 0.231,-0.526 0.269,-0.526C0.297,-0.526 0.323,-0.523 0.348,-0.516C0.372,-0.509 0.394,-0.498 0.413,-0.484C0.432,-0.47 0.447,-0.452 0.459,-0.431C0.471,-0.409 0.478,-0.384 0.481,-0.355L0.443,-0.355Z" style="fill-rule:nonzero;"/>
        </g>
        <g transform="matrix(57.0833,0,0,57.0833,545.916,422.19)">
            <path d="M0.071,-0.252L0.071,-0.246C0.071,-0.216 0.075,-0.187 0.083,-0.16C0.091,-0.133 0.103,-0.109 0.119,-0.088C0.134,-0.067 0.154,-0.051 0.178,-0.039C0.201,-0.027 0.229,-0.021 0.26,-0.021C0.311,-0.021 0.352,-0.035 0.382,-0.062C0.412,-0.089 0.433,-0.126 0.444,-0.174L0.482,-0.174C0.471,-0.114 0.446,-0.068 0.409,-0.036C0.371,-0.004 0.321,0.012 0.259,0.012C0.221,0.012 0.188,0.005 0.16,-0.009C0.131,-0.022 0.108,-0.041 0.089,-0.065C0.069,-0.088 0.055,-0.116 0.046,-0.149C0.037,-0.181 0.032,-0.216 0.032,-0.253C0.032,-0.289 0.037,-0.323 0.047,-0.357C0.056,-0.39 0.071,-0.419 0.09,-0.444C0.109,-0.468 0.134,-0.489 0.163,-0.504C0.192,-0.519 0.226,-0.526 0.265,-0.526C0.301,-0.526 0.333,-0.519 0.361,-0.506C0.388,-0.493 0.411,-0.474 0.43,-0.452C0.449,-0.428 0.463,-0.402 0.473,-0.372C0.482,-0.341 0.487,-0.309 0.487,-0.274L0.486,-0.252L0.071,-0.252ZM0.448,-0.285C0.447,-0.313 0.442,-0.339 0.434,-0.365C0.426,-0.39 0.414,-0.412 0.399,-0.431C0.383,-0.45 0.364,-0.465 0.342,-0.476C0.319,-0.487 0.294,-0.493 0.265,-0.493C0.234,-0.493 0.207,-0.487 0.184,-0.476C0.161,-0.464 0.141,-0.448 0.125,-0.43C0.109,-0.411 0.097,-0.388 0.088,-0.363C0.079,-0.338 0.074,-0.312 0.072,-0.285L0.448,-0.285Z" style="fill-rule:nonzero;"/>
        </g>
        <g transform="matrix(57.0833,0,0,57.0833,587.416,422.19)">
            <path d="M0,-0.481L0,-0.514L0.092,-0.514L0.092,-0.62C0.092,-0.638 0.095,-0.654 0.101,-0.667C0.107,-0.68 0.115,-0.69 0.126,-0.698C0.136,-0.706 0.148,-0.712 0.162,-0.716C0.175,-0.72 0.19,-0.722 0.205,-0.722C0.216,-0.722 0.231,-0.72 0.25,-0.717L0.25,-0.684C0.231,-0.687 0.216,-0.689 0.205,-0.689C0.184,-0.689 0.166,-0.684 0.152,-0.675C0.137,-0.665 0.13,-0.646 0.13,-0.617L0.13,-0.514L0.237,-0.514L0.237,-0.481L0.13,-0.481L0.13,-0L0.092,-0L0.092,-0.481L0,-0.481Z" style="fill-rule:nonzero;"/>
        </g>
        <g transform="matrix(57.0833,0,0,57.0833,601.173,422.19)">
            <path d="M0.463,-0L0.425,-0L0.425,-0.11L0.423,-0.11C0.416,-0.091 0.407,-0.074 0.395,-0.059C0.382,-0.044 0.368,-0.031 0.352,-0.02C0.335,-0.009 0.317,-0.001 0.298,0.004C0.279,0.009 0.259,0.012 0.239,0.012C0.209,0.012 0.184,0.008 0.163,0.001C0.141,-0.006 0.124,-0.016 0.111,-0.028C0.098,-0.04 0.087,-0.054 0.08,-0.069C0.072,-0.084 0.066,-0.099 0.063,-0.114C0.06,-0.129 0.058,-0.144 0.057,-0.159C0.056,-0.173 0.056,-0.185 0.056,-0.196L0.056,-0.514L0.094,-0.514L0.094,-0.189C0.094,-0.176 0.095,-0.16 0.097,-0.141C0.099,-0.122 0.105,-0.103 0.115,-0.086C0.124,-0.068 0.139,-0.053 0.158,-0.04C0.177,-0.027 0.205,-0.021 0.24,-0.021C0.269,-0.021 0.295,-0.026 0.318,-0.037C0.341,-0.048 0.36,-0.063 0.376,-0.082C0.392,-0.1 0.404,-0.123 0.413,-0.15C0.421,-0.176 0.425,-0.205 0.425,-0.236L0.425,-0.514L0.463,-0.514L0.463,-0ZM0.316,-0.603L0.316,-0.706L0.36,-0.706L0.36,-0.603L0.316,-0.603ZM0.158,-0.603L0.158,-0.706L0.202,-0.706L0.202,-0.603L0.158,-0.603Z" style="fill-rule:nonzero;"/>
        </g>
        <g transform="matrix(57.0833,0,0,57.0833,630.799,422.19)">
            <path d="M0.094,-0.4L0.097,-0.4C0.102,-0.417 0.11,-0.432 0.123,-0.447C0.135,-0.462 0.15,-0.474 0.168,-0.485C0.185,-0.496 0.205,-0.504 0.227,-0.51C0.248,-0.515 0.271,-0.518 0.294,-0.517L0.294,-0.479C0.274,-0.482 0.251,-0.48 0.226,-0.473C0.2,-0.466 0.175,-0.452 0.152,-0.429C0.143,-0.419 0.135,-0.409 0.128,-0.4C0.121,-0.391 0.115,-0.38 0.11,-0.369C0.105,-0.358 0.102,-0.345 0.099,-0.331C0.096,-0.317 0.095,-0.3 0.094,-0.281L0.094,-0L0.056,-0L0.056,-0.514L0.094,-0.514L0.094,-0.4Z" style="fill-rule:nonzero;"/>
        </g>
        <g transform="matrix(57.0833,0,0,57.0833,658.542,422.19)">
            <path d="M0.063,-0.714L0.543,-0.714L0.543,-0.676L0.107,-0.676L0.107,-0.39L0.517,-0.39L0.517,-0.352L0.107,-0.352L0.107,-0.038L0.548,-0.038L0.548,-0L0.063,-0L0.063,-0.714Z" style="fill-rule:nonzero;"/>
        </g>
        <g transform="matrix(57.0833,0,0,57.0833,690.509,422.19)">
            <path d="M0.056,-0.514L0.094,-0.514L0.094,-0.404L0.096,-0.404C0.103,-0.423 0.112,-0.44 0.125,-0.456C0.137,-0.471 0.151,-0.483 0.168,-0.494C0.184,-0.505 0.202,-0.513 0.221,-0.518C0.24,-0.523 0.26,-0.526 0.28,-0.526C0.31,-0.526 0.335,-0.522 0.357,-0.515C0.378,-0.508 0.395,-0.498 0.408,-0.486C0.421,-0.474 0.432,-0.46 0.44,-0.446C0.447,-0.431 0.453,-0.415 0.456,-0.4C0.459,-0.385 0.461,-0.37 0.462,-0.356C0.463,-0.341 0.463,-0.329 0.463,-0.318L0.463,-0L0.425,-0L0.425,-0.325C0.425,-0.338 0.424,-0.354 0.422,-0.373C0.42,-0.392 0.414,-0.411 0.405,-0.429C0.395,-0.446 0.38,-0.461 0.361,-0.474C0.341,-0.487 0.314,-0.493 0.279,-0.493C0.25,-0.493 0.224,-0.488 0.201,-0.477C0.178,-0.466 0.159,-0.452 0.143,-0.433C0.127,-0.413 0.115,-0.391 0.107,-0.365C0.098,-0.338 0.094,-0.309 0.094,-0.278L0.094,-0L0.056,-0L0.056,-0.514Z" style="fill-rule:nonzero;"/>
        </g>
        <g transform="matrix(57.0833,0,0,57.0833,720.135,422.19)">
            <path d="M0.245,-0.481L0.133,-0.481L0.133,-0.122C0.133,-0.101 0.135,-0.085 0.14,-0.073C0.145,-0.061 0.152,-0.052 0.162,-0.046C0.171,-0.039 0.183,-0.035 0.197,-0.034C0.21,-0.033 0.226,-0.032 0.244,-0.033L0.244,-0C0.225,0.001 0.206,0.001 0.188,-0.001C0.169,-0.002 0.153,-0.007 0.139,-0.016C0.125,-0.024 0.114,-0.036 0.106,-0.053C0.097,-0.07 0.094,-0.093 0.095,-0.122L0.095,-0.481L0,-0.481L0,-0.514L0.095,-0.514L0.095,-0.674L0.133,-0.674L0.133,-0.514L0.245,-0.514L0.245,-0.481Z" style="fill-rule:nonzero;"/>
        </g>
        <g transform="matrix(57.0833,0,0,57.0833,734.919,422.19)">
            <path d="M0.094,-0.4L0.097,-0.4C0.102,-0.417 0.11,-0.432 0.123,-0.447C0.135,-0.462 0.15,-0.474 0.168,-0.485C0.185,-0.496 0.205,-0.504 0.227,-0.51C0.248,-0.515 0.271,-0.518 0.294,-0.517L0.294,-0.479C0.274,-0.482 0.251,-0.48 0.226,-0.473C0.2,-0.466 0.175,-0.452 0.152,-0.429C0.143,-0.419 0.135,-0.409 0.128,-0.4C0.121,-0.391 0.115,-0.38 0.11,-0.369C0.105,-0.358 0.102,-0.345 0.099,-0.331C0.096,-0.317 0.095,-0.3 0.094,-0.281L0.094,-0L0.056,-0L0.056,-0.514L0.094,-0.514L0.094,-0.4Z" style="fill-rule:nonzero;"/>
        </g>
        <g transform="matrix(57.0833,0,0,57.0833,750.104,422.19)">
            <path d="M0.071,-0.252L0.071,-0.246C0.071,-0.216 0.075,-0.187 0.083,-0.16C0.091,-0.133 0.103,-0.109 0.119,-0.088C0.134,-0.067 0.154,-0.051 0.178,-0.039C0.201,-0.027 0.229,-0.021 0.26,-0.021C0.311,-0.021 0.352,-0.035 0.382,-0.062C0.412,-0.089 0.433,-0.126 0.444,-0.174L0.482,-0.174C0.471,-0.114 0.446,-0.068 0.409,-0.036C0.371,-0.004 0.321,0.012 0.259,0.012C0.221,0.012 0.188,0.005 0.16,-0.009C0.131,-0.022 0.108,-0.041 0.089,-0.065C0.069,-0.088 0.055,-0.116 0.046,-0.149C0.037,-0.181 0.032,-0.216 0.032,-0.253C0.032,-0.289 0.037,-0.323 0.047,-0.357C0.056,-0.39 0.071,-0.419 0.09,-0.444C0.109,-0.468 0.134,-0.489 0.163,-0.504C0.192,-0.519 0.226,-0.526 0.265,-0.526C0.301,-0.526 0.333,-0.519 0.361,-0.506C0.388,-0.493 0.411,-0.474 0.43,-0.452C0.449,-0.428 0.463,-0.402 0.473,-0.372C0.482,-0.341 0.487,-0.309 0.487,-0.274L0.486,-0.252L0.071,-0.252ZM0.448,-0.285C0.447,-0.313 0.442,-0.339 0.434,-0.365C0.426,-0.39 0.414,-0.412 0.399,-0.431C0.383,-0.45 0.364,-0.465 0.342,-0.476C0.319,-0.487 0.294,-0.493 0.265,-0.493C0.234,-0.493 0.207,-0.487 0.184,-0.476C0.161,-0.464 0.141,-0.448 0.125,-0.43C0.109,-0.411 0.097,-0.388 0.088,-0.363C0.079,-0.338 0.074,-0.312 0.072,-0.285L0.448,-0.285Z" style="fill-rule:nonzero;"/>
        </g>
        <g transform="matrix(57.0833,0,0,57.0833,779.73,422.19)">
            <path d="M0.103,-0.396L0.105,-0.396C0.109,-0.409 0.116,-0.423 0.125,-0.438C0.134,-0.453 0.147,-0.468 0.162,-0.481C0.177,-0.494 0.196,-0.504 0.218,-0.513C0.239,-0.522 0.264,-0.526 0.292,-0.526C0.331,-0.526 0.366,-0.519 0.395,-0.504C0.424,-0.489 0.448,-0.47 0.467,-0.445C0.486,-0.42 0.5,-0.392 0.509,-0.359C0.518,-0.326 0.523,-0.292 0.523,-0.256C0.523,-0.217 0.518,-0.181 0.509,-0.148C0.5,-0.115 0.486,-0.087 0.467,-0.064C0.448,-0.04 0.424,-0.021 0.395,-0.008C0.366,0.005 0.331,0.012 0.292,0.012C0.249,0.012 0.211,0.003 0.178,-0.016C0.145,-0.035 0.12,-0.065 0.105,-0.107L0.103,-0.107L0.103,0.184L0.065,0.184L0.065,-0.514L0.103,-0.514L0.103,-0.396ZM0.292,-0.021C0.325,-0.021 0.354,-0.027 0.379,-0.04C0.403,-0.053 0.423,-0.07 0.439,-0.091C0.454,-0.112 0.466,-0.137 0.474,-0.166C0.481,-0.194 0.485,-0.224 0.485,-0.256C0.485,-0.285 0.481,-0.314 0.474,-0.343C0.467,-0.371 0.455,-0.396 0.44,-0.419C0.425,-0.441 0.405,-0.459 0.381,-0.473C0.356,-0.486 0.327,-0.493 0.292,-0.493C0.258,-0.493 0.229,-0.486 0.205,-0.473C0.181,-0.46 0.162,-0.442 0.147,-0.42C0.131,-0.398 0.121,-0.373 0.114,-0.345C0.107,-0.316 0.104,-0.287 0.104,-0.256C0.104,-0.225 0.107,-0.196 0.113,-0.168C0.119,-0.139 0.129,-0.114 0.144,-0.093C0.158,-0.071 0.177,-0.054 0.202,-0.041C0.226,-0.028 0.256,-0.021 0.292,-0.021Z" style="fill-rule:nonzero;"/>
        </g>
        <g transform="matrix(57.0833,0,0,57.0833,811.468,422.19)">
            <path d="M0.094,-0.4L0.097,-0.4C0.102,-0.417 0.11,-0.432 0.123,-0.447C0.135,-0.462 0.15,-0.474 0.168,-0.485C0.185,-0.496 0.205,-0.504 0.227,-0.51C0.248,-0.515 0.271,-0.518 0.294,-0.517L0.294,-0.479C0.274,-0.482 0.251,-0.48 0.226,-0.473C0.2,-0.466 0.175,-0.452 0.152,-0.429C0.143,-0.419 0.135,-0.409 0.128,-0.4C0.121,-0.391 0.115,-0.38 0.11,-0.369C0.105,-0.358 0.102,-0.345 0.099,-0.331C0.096,-0.317 0.095,-0.3 0.094,-0.281L0.094,-0L0.056,-0L0.056,-0.514L0.094,-0.514L0.094,-0.4Z" style="fill-rule:nonzero;"/>
        </g>
        <g transform="matrix(57.0833,0,0,57.0833,826.652,422.19)">
            <path d="M0.071,-0.252L0.071,-0.246C0.071,-0.216 0.075,-0.187 0.083,-0.16C0.091,-0.133 0.103,-0.109 0.119,-0.088C0.134,-0.067 0.154,-0.051 0.178,-0.039C0.201,-0.027 0.229,-0.021 0.26,-0.021C0.311,-0.021 0.352,-0.035 0.382,-0.062C0.412,-0.089 0.433,-0.126 0.444,-0.174L0.482,-0.174C0.471,-0.114 0.446,-0.068 0.409,-0.036C0.371,-0.004 0.321,0.012 0.259,0.012C0.221,0.012 0.188,0.005 0.16,-0.009C0.131,-0.022 0.108,-0.041 0.089,-0.065C0.069,-0.088 0.055,-0.116 0.046,-0.149C0.037,-0.181 0.032,-0.216 0.032,-0.253C0.032,-0.289 0.037,-0.323 0.047,-0.357C0.056,-0.39 0.071,-0.419 0.09,-0.444C0.109,-0.468 0.134,-0.489 0.163,-0.504C0.192,-0.519 0.226,-0.526 0.265,-0.526C0.301,-0.526 0.333,-0.519 0.361,-0.506C0.388,-0.493 0.411,-0.474 0.43,-0.452C0.449,-0.428 0.463,-0.402 0.473,-0.372C0.482,-0.341 0.487,-0.309 0.487,-0.274L0.486,-0.252L0.071,-0.252ZM0.448,-0.285C0.447,-0.313 0.442,-0.339 0.434,-0.365C0.426,-0.39 0.414,-0.412 0.399,-0.431C0.383,-0.45 0.364,-0.465 0.342,-0.476C0.319,-0.487 0.294,-0.493 0.265,-0.493C0.234,-0.493 0.207,-0.487 0.184,-0.476C0.161,-0.464 0.141,-0.448 0.125,-0.43C0.109,-0.411 0.097,-0.388 0.088,-0.363C0.079,-0.338 0.074,-0.312 0.072,-0.285L0.448,-0.285Z" style="fill-rule:nonzero;"/>
        </g>
        <g transform="matrix(57.0833,0,0,57.0833,856.279,422.19)">
            <path d="M0.056,-0.514L0.094,-0.514L0.094,-0.404L0.096,-0.404C0.103,-0.423 0.112,-0.44 0.125,-0.456C0.137,-0.471 0.151,-0.483 0.168,-0.494C0.184,-0.505 0.202,-0.513 0.221,-0.518C0.24,-0.523 0.26,-0.526 0.28,-0.526C0.31,-0.526 0.335,-0.522 0.357,-0.515C0.378,-0.508 0.395,-0.498 0.408,-0.486C0.421,-0.474 0.432,-0.46 0.44,-0.446C0.447,-0.431 0.453,-0.415 0.456,-0.4C0.459,-0.385 0.461,-0.37 0.462,-0.356C0.463,-0.341 0.463,-0.329 0.463,-0.318L0.463,-0L0.425,-0L0.425,-0.325C0.425,-0.338 0.424,-0.354 0.422,-0.373C0.42,-0.392 0.414,-0.411 0.405,-0.429C0.395,-0.446 0.38,-0.461 0.361,-0.474C0.341,-0.487 0.314,-0.493 0.279,-0.493C0.25,-0.493 0.224,-0.488 0.201,-0.477C0.178,-0.466 0.159,-0.452 0.143,-0.433C0.127,-0.413 0.115,-0.391 0.107,-0.365C0.098,-0.338 0.094,-0.309 0.094,-0.278L0.094,-0L0.056,-0L0.056,-0.514Z" style="fill-rule:nonzero;"/>
        </g>
        <g transform="matrix(57.0833,0,0,57.0833,885.905,422.19)">
            <path d="M0.071,-0.252L0.071,-0.246C0.071,-0.216 0.075,-0.187 0.083,-0.16C0.091,-0.133 0.103,-0.109 0.119,-0.088C0.134,-0.067 0.154,-0.051 0.178,-0.039C0.201,-0.027 0.229,-0.021 0.26,-0.021C0.311,-0.021 0.352,-0.035 0.382,-0.062C0.412,-0.089 0.433,-0.126 0.444,-0.174L0.482,-0.174C0.471,-0.114 0.446,-0.068 0.409,-0.036C0.371,-0.004 0.321,0.012 0.259,0.012C0.221,0.012 0.188,0.005 0.16,-0.009C0.131,-0.022 0.108,-0.041 0.089,-0.065C0.069,-0.088 0.055,-0.116 0.046,-0.149C0.037,-0.181 0.032,-0.216 0.032,-0.253C0.032,-0.289 0.037,-0.323 0.047,-0.357C0.056,-0.39 0.071,-0.419 0.09,-0.444C0.109,-0.468 0.134,-0.489 0.163,-0.504C0.192,-0.519 0.226,-0.526 0.265,-0.526C0.301,-0.526 0.333,-0.519 0.361,-0.506C0.388,-0.493 0.411,-0.474 0.43,-0.452C0.449,-0.428 0.463,-0.402 0.473,-0.372C0.482,-0.341 0.487,-0.309 0.487,-0.274L0.486,-0.252L0.071,-0.252ZM0.448,-0.285C0.447,-0.313 0.442,-0.339 0.434,-0.365C0.426,-0.39 0.414,-0.412 0.399,-0.431C0.383,-0.45 0.364,-0.465 0.342,-0.476C0.319,-0.487 0.294,-0.493 0.265,-0.493C0.234,-0.493 0.207,-0.487 0.184,-0.476C0.161,-0.464 0.141,-0.448 0.125,-0.43C0.109,-0.411 0.097,-0.388 0.088,-0.363C0.079,-0.338 0.074,-0.312 0.072,-0.285L0.448,-0.285Z" style="fill-rule:nonzero;"/>
        </g>
        <g transform="matrix(57.0833,0,0,57.0833,915.531,422.19)">
            <path d="M0.463,-0L0.425,-0L0.425,-0.11L0.423,-0.11C0.416,-0.091 0.407,-0.074 0.395,-0.059C0.382,-0.044 0.368,-0.031 0.352,-0.02C0.335,-0.009 0.317,-0.001 0.298,0.004C0.279,0.009 0.259,0.012 0.239,0.012C0.209,0.012 0.184,0.008 0.163,0.001C0.141,-0.006 0.124,-0.016 0.111,-0.028C0.098,-0.04 0.087,-0.054 0.08,-0.069C0.072,-0.084 0.066,-0.099 0.063,-0.114C0.06,-0.129 0.058,-0.144 0.057,-0.159C0.056,-0.173 0.056,-0.185 0.056,-0.196L0.056,-0.514L0.094,-0.514L0.094,-0.189C0.094,-0.176 0.095,-0.16 0.097,-0.141C0.099,-0.122 0.105,-0.103 0.115,-0.086C0.124,-0.068 0.139,-0.053 0.158,-0.04C0.177,-0.027 0.205,-0.021 0.24,-0.021C0.269,-0.021 0.295,-0.026 0.318,-0.037C0.341,-0.048 0.36,-0.063 0.376,-0.082C0.392,-0.1 0.404,-0.123 0.413,-0.15C0.421,-0.176 0.425,-0.205 0.425,-0.236L0.425,-0.514L0.463,-0.514L0.463,-0Z" style="fill-rule:nonzero;"/>
        </g>
        <g transform="matrix(57.0833,0,0,57.0833,945.157,422.19)">
            <path d="M0.094,-0.4L0.097,-0.4C0.102,-0.417 0.11,-0.432 0.123,-0.447C0.135,-0.462 0.15,-0.474 0.168,-0.485C0.185,-0.496 0.205,-0.504 0.227,-0.51C0.248,-0.515 0.271,-0.518 0.294,-0.517L0.294,-0.479C0.274,-0.482 0.251,-0.48 0.226,-0.473C0.2,-0.466 0.175,-0.452 0.152,-0.429C0.143,-0.419 0.135,-0.409 0.128,-0.4C0.121,-0.391 0.115,-0.38 0.11,-0.369C0.105,-0.358 0.102,-0.345 0.099,-0.331C0.096,-0.317 0.095,-0.3 0.094,-0.281L0.094,-0L0.056,-0L0.056,-0.514L0.094,-0.514L0.094,-0.4Z" style="fill-rule:nonzero;"/>
        </g>
        <g transform="matrix(57.0833,0,0,57.0833,961.026,422.19)">
            <path d="M0.074,-0.171C0.075,-0.147 0.081,-0.126 0.09,-0.108C0.099,-0.089 0.112,-0.074 0.127,-0.061C0.141,-0.048 0.159,-0.038 0.179,-0.031C0.199,-0.024 0.221,-0.021 0.244,-0.021C0.261,-0.021 0.279,-0.023 0.298,-0.026C0.317,-0.028 0.334,-0.034 0.351,-0.042C0.367,-0.05 0.38,-0.061 0.391,-0.076C0.402,-0.09 0.407,-0.108 0.407,-0.13C0.407,-0.159 0.398,-0.18 0.381,-0.195C0.364,-0.21 0.342,-0.221 0.316,-0.229C0.289,-0.237 0.261,-0.243 0.231,-0.249C0.2,-0.254 0.172,-0.261 0.146,-0.271C0.119,-0.281 0.097,-0.295 0.08,-0.314C0.063,-0.332 0.054,-0.359 0.054,-0.394C0.054,-0.419 0.06,-0.44 0.071,-0.458C0.082,-0.474 0.097,-0.488 0.115,-0.498C0.132,-0.508 0.152,-0.515 0.174,-0.52C0.196,-0.524 0.218,-0.526 0.24,-0.526C0.267,-0.526 0.292,-0.523 0.315,-0.517C0.338,-0.511 0.359,-0.501 0.376,-0.488C0.393,-0.475 0.406,-0.458 0.416,-0.437C0.425,-0.416 0.43,-0.391 0.43,-0.362L0.392,-0.362C0.392,-0.385 0.388,-0.405 0.381,-0.422C0.373,-0.439 0.362,-0.452 0.349,-0.463C0.335,-0.473 0.319,-0.481 0.3,-0.486C0.281,-0.491 0.261,-0.493 0.24,-0.493C0.223,-0.493 0.205,-0.491 0.188,-0.488C0.17,-0.485 0.154,-0.479 0.14,-0.471C0.126,-0.463 0.115,-0.453 0.106,-0.44C0.096,-0.427 0.092,-0.412 0.092,-0.394C0.092,-0.373 0.097,-0.357 0.107,-0.344C0.117,-0.331 0.13,-0.321 0.147,-0.314C0.163,-0.306 0.181,-0.3 0.202,-0.295C0.222,-0.29 0.242,-0.286 0.263,-0.281C0.288,-0.276 0.312,-0.271 0.335,-0.265C0.357,-0.258 0.376,-0.25 0.393,-0.239C0.409,-0.228 0.422,-0.213 0.431,-0.196C0.44,-0.179 0.445,-0.157 0.445,-0.13C0.445,-0.102 0.439,-0.079 0.426,-0.061C0.413,-0.043 0.397,-0.029 0.378,-0.018C0.359,-0.007 0.337,0.001 0.314,0.006C0.29,0.01 0.267,0.012 0.244,0.012C0.215,0.012 0.188,0.008 0.163,0.001C0.137,-0.007 0.116,-0.019 0.097,-0.035C0.078,-0.05 0.064,-0.069 0.053,-0.092C0.042,-0.115 0.037,-0.141 0.036,-0.171L0.074,-0.171Z" style="fill-rule:nonzero;"/>
        </g>
        <g transform="matrix(57.0833,0,0,57.0833,988.484,422.19)">
            <path d="M0.094,-0.714L0.094,-0.404L0.096,-0.404C0.103,-0.423 0.112,-0.44 0.125,-0.456C0.137,-0.471 0.151,-0.483 0.168,-0.494C0.184,-0.505 0.202,-0.513 0.221,-0.518C0.24,-0.523 0.26,-0.526 0.28,-0.526C0.31,-0.526 0.335,-0.522 0.357,-0.515C0.378,-0.508 0.395,-0.498 0.408,-0.486C0.421,-0.474 0.432,-0.46 0.44,-0.446C0.447,-0.431 0.453,-0.415 0.456,-0.4C0.459,-0.385 0.461,-0.37 0.462,-0.356C0.463,-0.341 0.463,-0.329 0.463,-0.318L0.463,-0L0.425,-0L0.425,-0.325C0.425,-0.338 0.424,-0.354 0.422,-0.373C0.42,-0.392 0.414,-0.411 0.405,-0.429C0.395,-0.446 0.38,-0.461 0.361,-0.474C0.341,-0.487 0.314,-0.493 0.279,-0.493C0.25,-0.493 0.224,-0.488 0.201,-0.477C0.178,-0.466 0.159,-0.452 0.143,-0.433C0.127,-0.413 0.115,-0.391 0.107,-0.365C0.098,-0.338 0.094,-0.309 0.094,-0.278L0.094,-0L0.056,-0L0.056,-0.714L0.094,-0.714Z" style="fill-rule:nonzero;"/>
        </g>
        <g transform="matrix(57.0833,0,0,57.0833,1018.11,422.19)">
            <path d="M0.065,-0.611L0.065,-0.714L0.103,-0.714L0.103,-0.611L0.065,-0.611ZM0.065,-0L0.065,-0.514L0.103,-0.514L0.103,-0L0.065,-0Z" style="fill-rule:nonzero;"/>
        </g>
        <g transform="matrix(57.0833,0,0,57.0833,1027.7,422.19)">
            <path d="M0.103,-0.396L0.105,-0.396C0.109,-0.409 0.116,-0.423 0.125,-0.438C0.134,-0.453 0.147,-0.468 0.162,-0.481C0.177,-0.494 0.196,-0.504 0.218,-0.513C0.239,-0.522 0.264,-0.526 0.292,-0.526C0.331,-0.526 0.366,-0.519 0.395,-0.504C0.424,-0.489 0.448,-0.47 0.467,-0.445C0.486,-0.42 0.5,-0.392 0.509,-0.359C0.518,-0.326 0.523,-0.292 0.523,-0.256C0.523,-0.217 0.518,-0.181 0.509,-0.148C0.5,-0.115 0.486,-0.087 0.467,-0.064C0.448,-0.04 0.424,-0.021 0.395,-0.008C0.366,0.005 0.331,0.012 0.292,0.012C0.249,0.012 0.211,0.003 0.178,-0.016C0.145,-0.035 0.12,-0.065 0.105,-0.107L0.103,-0.107L0.103,0.184L0.065,0.184L0.065,-0.514L0.103,-0.514L0.103,-0.396ZM0.292,-0.021C0.325,-0.021 0.354,-0.027 0.379,-0.04C0.403,-0.053 0.423,-0.07 0.439,-0.091C0.454,-0.112 0.466,-0.137 0.474,-0.166C0.481,-0.194 0.485,-0.224 0.485,-0.256C0.485,-0.285 0.481,-0.314 0.474,-0.343C0.467,-0.371 0.455,-0.396 0.44,-0.419C0.425,-0.441 0.405,-0.459 0.381,-0.473C0.356,-0.486 0.327,-0.493 0.292,-0.493C0.258,-0.493 0.229,-0.486 0.205,-0.473C0.181,-0.46 0.162,-0.442 0.147,-0.42C0.131,-0.398 0.121,-0.373 0.114,-0.345C0.107,-0.316 0.104,-0.287 0.104,-0.256C0.104,-0.225 0.107,-0.196 0.113,-0.168C0.119,-0.139 0.129,-0.114 0.144,-0.093C0.158,-0.071 0.177,-0.054 0.202,-0.041C0.226,-0.028 0.256,-0.021 0.292,-0.021Z" style="fill-rule:nonzero;"/>
        </g>
        <g transform="matrix(57.0833,0,0,57.0833,1068.46,422.19)">
            <path d="M0.043,-0.17C0.043,-0.199 0.049,-0.225 0.061,-0.247C0.072,-0.269 0.087,-0.289 0.105,-0.306C0.123,-0.323 0.143,-0.339 0.165,-0.353C0.187,-0.367 0.208,-0.381 0.229,-0.394C0.218,-0.408 0.206,-0.422 0.195,-0.436C0.184,-0.449 0.173,-0.464 0.164,-0.479C0.155,-0.494 0.147,-0.509 0.141,-0.526C0.135,-0.542 0.132,-0.56 0.132,-0.579C0.132,-0.598 0.136,-0.615 0.145,-0.63C0.154,-0.645 0.165,-0.657 0.179,-0.668C0.193,-0.679 0.209,-0.687 0.227,-0.693C0.245,-0.699 0.263,-0.702 0.282,-0.702C0.301,-0.702 0.32,-0.699 0.338,-0.694C0.356,-0.689 0.372,-0.681 0.386,-0.671C0.4,-0.66 0.411,-0.647 0.42,-0.632C0.428,-0.617 0.432,-0.599 0.432,-0.579C0.432,-0.554 0.428,-0.532 0.419,-0.513C0.409,-0.494 0.398,-0.478 0.384,-0.463C0.37,-0.448 0.354,-0.434 0.337,-0.422C0.319,-0.409 0.301,-0.397 0.284,-0.384L0.454,-0.175C0.461,-0.194 0.467,-0.213 0.472,-0.233C0.476,-0.253 0.478,-0.273 0.478,-0.294L0.516,-0.294C0.515,-0.268 0.511,-0.242 0.505,-0.217C0.498,-0.191 0.49,-0.166 0.48,-0.143L0.596,-0L0.545,-0L0.458,-0.106C0.436,-0.069 0.408,-0.041 0.373,-0.02C0.338,0.002 0.299,0.012 0.255,0.012C0.225,0.012 0.197,0.008 0.172,0.001C0.146,-0.007 0.124,-0.019 0.105,-0.034C0.086,-0.049 0.07,-0.068 0.06,-0.091C0.049,-0.114 0.043,-0.14 0.043,-0.17ZM0.262,-0.412C0.277,-0.421 0.292,-0.432 0.307,-0.443C0.322,-0.454 0.337,-0.466 0.35,-0.479C0.363,-0.492 0.373,-0.507 0.382,-0.524C0.39,-0.541 0.394,-0.559 0.394,-0.579C0.394,-0.592 0.391,-0.604 0.384,-0.616C0.377,-0.627 0.369,-0.636 0.359,-0.644C0.348,-0.652 0.336,-0.658 0.323,-0.663C0.31,-0.667 0.296,-0.669 0.282,-0.669C0.268,-0.669 0.254,-0.667 0.241,-0.663C0.228,-0.658 0.216,-0.652 0.206,-0.644C0.195,-0.636 0.187,-0.627 0.18,-0.616C0.173,-0.604 0.17,-0.592 0.17,-0.579C0.17,-0.562 0.173,-0.546 0.18,-0.531C0.187,-0.516 0.195,-0.501 0.204,-0.488C0.213,-0.474 0.223,-0.461 0.234,-0.449C0.245,-0.436 0.254,-0.424 0.262,-0.412ZM0.081,-0.17C0.081,-0.147 0.086,-0.126 0.096,-0.107C0.106,-0.088 0.119,-0.073 0.136,-0.06C0.152,-0.047 0.17,-0.038 0.191,-0.031C0.212,-0.024 0.233,-0.021 0.255,-0.021C0.285,-0.021 0.311,-0.027 0.334,-0.039C0.356,-0.05 0.374,-0.063 0.389,-0.077C0.404,-0.091 0.415,-0.104 0.422,-0.117C0.429,-0.129 0.433,-0.136 0.433,-0.137L0.249,-0.366C0.23,-0.354 0.211,-0.342 0.192,-0.33C0.172,-0.317 0.154,-0.303 0.138,-0.288C0.121,-0.273 0.108,-0.256 0.097,-0.237C0.086,-0.218 0.081,-0.195 0.081,-0.17Z" style="fill-rule:nonzero;"/>
        </g>
        <g transform="matrix(57.0833,0,0,57.0833,1112.47,422.19)">
            <path d="M0.063,-0.714L0.367,-0.714C0.387,-0.714 0.409,-0.712 0.434,-0.707C0.458,-0.702 0.481,-0.693 0.502,-0.679C0.523,-0.664 0.54,-0.644 0.554,-0.618C0.568,-0.591 0.575,-0.557 0.575,-0.514C0.575,-0.451 0.556,-0.403 0.517,-0.369C0.478,-0.335 0.423,-0.318 0.351,-0.318L0.107,-0.318L0.107,-0L0.063,-0L0.063,-0.714ZM0.107,-0.356L0.358,-0.356C0.39,-0.356 0.417,-0.361 0.44,-0.371C0.462,-0.38 0.48,-0.393 0.493,-0.408C0.506,-0.423 0.516,-0.44 0.522,-0.459C0.528,-0.478 0.531,-0.496 0.531,-0.515C0.531,-0.528 0.529,-0.544 0.525,-0.563C0.521,-0.581 0.513,-0.599 0.501,-0.616C0.489,-0.632 0.472,-0.647 0.451,-0.659C0.429,-0.67 0.4,-0.676 0.364,-0.676L0.107,-0.676L0.107,-0.356Z" style="fill-rule:nonzero;"/>
        </g>
        <g transform="matrix(57.0833,0,0,57.0833,1145.06,422.19)">
            <path d="M0.094,-0.4L0.097,-0.4C0.102,-0.417 0.11,-0.432 0.123,-0.447C0.135,-0.462 0.15,-0.474 0.168,-0.485C0.185,-0.496 0.205,-0.504 0.227,-0.51C0.248,-0.515 0.271,-0.518 0.294,-0.517L0.294,-0.479C0.274,-0.482 0.251,-0.48 0.226,-0.473C0.2,-0.466 0.175,-0.452 0.152,-0.429C0.143,-0.419 0.135,-0.409 0.128,-0.4C0.121,-0.391 0.115,-0.38 0.11,-0.369C0.105,-0.358 0.102,-0.345 0.099,-0.331C0.096,-0.317 0.095,-0.3 0.094,-0.281L0.094,-0L0.056,-0L0.056,-0.514L0.094,-0.514L0.094,-0.4Z" style="fill-rule:nonzero;"/>
        </g>
        <g transform="matrix(57.0833,0,0,57.0833,1160.25,422.19)">
            <path d="M0.032,-0.257C0.032,-0.294 0.037,-0.328 0.048,-0.361C0.058,-0.393 0.073,-0.421 0.093,-0.446C0.113,-0.471 0.138,-0.49 0.167,-0.505C0.196,-0.519 0.23,-0.526 0.268,-0.526C0.306,-0.526 0.34,-0.519 0.369,-0.505C0.398,-0.49 0.423,-0.471 0.443,-0.446C0.463,-0.421 0.478,-0.393 0.489,-0.361C0.499,-0.328 0.504,-0.294 0.504,-0.257C0.504,-0.22 0.499,-0.186 0.489,-0.153C0.478,-0.12 0.463,-0.092 0.443,-0.068C0.423,-0.043 0.398,-0.024 0.369,-0.01C0.34,0.005 0.306,0.012 0.268,0.012C0.23,0.012 0.196,0.005 0.167,-0.01C0.138,-0.024 0.113,-0.043 0.093,-0.068C0.073,-0.092 0.058,-0.12 0.048,-0.153C0.037,-0.186 0.032,-0.22 0.032,-0.257ZM0.07,-0.257C0.07,-0.226 0.074,-0.197 0.083,-0.169C0.092,-0.14 0.104,-0.115 0.121,-0.093C0.138,-0.071 0.158,-0.054 0.183,-0.041C0.208,-0.028 0.236,-0.021 0.268,-0.021C0.3,-0.021 0.328,-0.028 0.353,-0.041C0.378,-0.054 0.398,-0.071 0.415,-0.093C0.432,-0.115 0.444,-0.14 0.453,-0.169C0.462,-0.197 0.466,-0.226 0.466,-0.257C0.466,-0.288 0.462,-0.317 0.453,-0.346C0.444,-0.374 0.432,-0.399 0.415,-0.421C0.398,-0.443 0.378,-0.46 0.353,-0.474C0.328,-0.487 0.3,-0.493 0.268,-0.493C0.236,-0.493 0.208,-0.487 0.183,-0.474C0.158,-0.46 0.138,-0.443 0.121,-0.421C0.104,-0.399 0.092,-0.374 0.083,-0.346C0.074,-0.317 0.07,-0.288 0.07,-0.257Z" style="fill-rule:nonzero;"/>
        </g>
        <g transform="matrix(57.0833,0,0,57.0833,1190.9,422.19)">
            <path d="M0.245,-0.481L0.133,-0.481L0.133,-0.122C0.133,-0.101 0.135,-0.085 0.14,-0.073C0.145,-0.061 0.152,-0.052 0.162,-0.046C0.171,-0.039 0.183,-0.035 0.197,-0.034C0.21,-0.033 0.226,-0.032 0.244,-0.033L0.244,-0C0.225,0.001 0.206,0.001 0.188,-0.001C0.169,-0.002 0.153,-0.007 0.139,-0.016C0.125,-0.024 0.114,-0.036 0.106,-0.053C0.097,-0.07 0.094,-0.093 0.095,-0.122L0.095,-0.481L0,-0.481L0,-0.514L0.095,-0.514L0.095,-0.674L0.133,-0.674L0.133,-0.514L0.245,-0.514L0.245,-0.481Z" style="fill-rule:nonzero;"/>
        </g>
        <g transform="matrix(57.0833,0,0,57.0833,1204.89,422.19)">
            <path d="M0.032,-0.257C0.032,-0.294 0.037,-0.328 0.048,-0.361C0.058,-0.393 0.073,-0.421 0.093,-0.446C0.113,-0.471 0.138,-0.49 0.167,-0.505C0.196,-0.519 0.23,-0.526 0.268,-0.526C0.306,-0.526 0.34,-0.519 0.369,-0.505C0.398,-0.49 0.423,-0.471 0.443,-0.446C0.463,-0.421 0.478,-0.393 0.489,-0.361C0.499,-0.328 0.504,-0.294 0.504,-0.257C0.504,-0.22 0.499,-0.186 0.489,-0.153C0.478,-0.12 0.463,-0.092 0.443,-0.068C0.423,-0.043 0.398,-0.024 0.369,-0.01C0.34,0.005 0.306,0.012 0.268,0.012C0.23,0.012 0.196,0.005 0.167,-0.01C0.138,-0.024 0.113,-0.043 0.093,-0.068C0.073,-0.092 0.058,-0.12 0.048,-0.153C0.037,-0.186 0.032,-0.22 0.032,-0.257ZM0.07,-0.257C0.07,-0.226 0.074,-0.197 0.083,-0.169C0.092,-0.14 0.104,-0.115 0.121,-0.093C0.138,-0.071 0.158,-0.054 0.183,-0.041C0.208,-0.028 0.236,-0.021 0.268,-0.021C0.3,-0.021 0.328,-0.028 0.353,-0.041C0.378,-0.054 0.398,-0.071 0.415,-0.093C0.432,-0.115 0.444,-0.14 0.453,-0.169C0.462,-0.197 0.466,-0.226 0.466,-0.257C0.466,-0.288 0.462,-0.317 0.453,-0.346C0.444,-0.374 0.432,-0.399 0.415,-0.421C0.398,-0.443 0.378,-0.46 0.353,-0.474C0.328,-0.487 0.3,-0.493 0.268,-0.493C0.236,-0.493 0.208,-0.487 0.183,-0.474C0.158,-0.46 0.138,-0.443 0.121,-0.421C0.104,-0.399 0.092,-0.374 0.083,-0.346C0.074,-0.317 0.07,-0.288 0.07,-0.257Z" style="fill-rule:nonzero;"/>
        </g>
        <g transform="matrix(57.0833,0,0,57.0833,1235.54,422.19)">
            <path d="M0.245,-0.481L0.133,-0.481L0.133,-0.122C0.133,-0.101 0.135,-0.085 0.14,-0.073C0.145,-0.061 0.152,-0.052 0.162,-0.046C0.171,-0.039 0.183,-0.035 0.197,-0.034C0.21,-0.033 0.226,-0.032 0.244,-0.033L0.244,-0C0.225,0.001 0.206,0.001 0.188,-0.001C0.169,-0.002 0.153,-0.007 0.139,-0.016C0.125,-0.024 0.114,-0.036 0.106,-0.053C0.097,-0.07 0.094,-0.093 0.095,-0.122L0.095,-0.481L0,-0.481L0,-0.514L0.095,-0.514L0.095,-0.674L0.133,-0.674L0.133,-0.514L0.245,-0.514L0.245,-0.481Z" style="fill-rule:nonzero;"/>
        </g>
        <g transform="matrix(57.0833,0,0,57.0833,1250.32,422.19)">
            <path d="M-0.006,-0.514L0.039,-0.514L0.23,-0.045L0.406,-0.514L0.449,-0.514L0.229,0.055C0.218,0.08 0.209,0.102 0.2,0.121C0.191,0.139 0.18,0.152 0.169,0.161C0.156,0.172 0.14,0.178 0.122,0.181C0.103,0.183 0.079,0.184 0.049,0.184L0.049,0.151C0.076,0.151 0.098,0.149 0.113,0.145C0.128,0.14 0.143,0.131 0.156,0.118C0.163,0.111 0.171,0.097 0.179,0.078C0.187,0.058 0.197,0.031 0.209,-0.003L-0.006,-0.514Z" style="fill-rule:nonzero;"/>
        </g>
        <g transform="matrix(57.0833,0,0,57.0833,1275.67,422.19)">
            <path d="M0.103,-0.396L0.105,-0.396C0.109,-0.409 0.116,-0.423 0.125,-0.438C0.134,-0.453 0.147,-0.468 0.162,-0.481C0.177,-0.494 0.196,-0.504 0.218,-0.513C0.239,-0.522 0.264,-0.526 0.292,-0.526C0.331,-0.526 0.366,-0.519 0.395,-0.504C0.424,-0.489 0.448,-0.47 0.467,-0.445C0.486,-0.42 0.5,-0.392 0.509,-0.359C0.518,-0.326 0.523,-0.292 0.523,-0.256C0.523,-0.217 0.518,-0.181 0.509,-0.148C0.5,-0.115 0.486,-0.087 0.467,-0.064C0.448,-0.04 0.424,-0.021 0.395,-0.008C0.366,0.005 0.331,0.012 0.292,0.012C0.249,0.012 0.211,0.003 0.178,-0.016C0.145,-0.035 0.12,-0.065 0.105,-0.107L0.103,-0.107L0.103,0.184L0.065,0.184L0.065,-0.514L0.103,-0.514L0.103,-0.396ZM0.292,-0.021C0.325,-0.021 0.354,-0.027 0.379,-0.04C0.403,-0.053 0.423,-0.07 0.439,-0.091C0.454,-0.112 0.466,-0.137 0.474,-0.166C0.481,-0.194 0.485,-0.224 0.485,-0.256C0.485,-0.285 0.481,-0.314 0.474,-0.343C0.467,-0.371 0.455,-0.396 0.44,-0.419C0.425,-0.441 0.405,-0.459 0.381,-0.473C0.356,-0.486 0.327,-0.493 0.292,-0.493C0.258,-0.493 0.229,-0.486 0.205,-0.473C0.181,-0.46 0.162,-0.442 0.147,-0.42C0.131,-0.398 0.121,-0.373 0.114,-0.345C0.107,-0.316 0.104,-0.287 0.104,-0.256C0.104,-0.225 0.107,-0.196 0.113,-0.168C0.119,-0.139 0.129,-0.114 0.144,-0.093C0.158,-0.071 0.177,-0.054 0.202,-0.041C0.226,-0.028 0.256,-0.021 0.292,-0.021Z" style="fill-rule:nonzero;"/>
        </g>
        <g transform="matrix(57.0833,0,0,57.0833,1307.41,422.19)">
            <path d="M0.065,-0.611L0.065,-0.714L0.103,-0.714L0.103,-0.611L0.065,-0.611ZM0.065,-0L0.065,-0.514L0.103,-0.514L0.103,-0L0.065,-0Z" style="fill-rule:nonzero;"/>
        </g>
        <g transform="matrix(57.0833,0,0,57.0833,1317,422.19)">
            <path d="M0.056,-0.514L0.094,-0.514L0.094,-0.404L0.096,-0.404C0.103,-0.423 0.112,-0.44 0.125,-0.456C0.137,-0.471 0.151,-0.483 0.168,-0.494C0.184,-0.505 0.202,-0.513 0.221,-0.518C0.24,-0.523 0.26,-0.526 0.28,-0.526C0.31,-0.526 0.335,-0.522 0.357,-0.515C0.378,-0.508 0.395,-0.498 0.408,-0.486C0.421,-0.474 0.432,-0.46 0.44,-0.446C0.447,-0.431 0.453,-0.415 0.456,-0.4C0.459,-0.385 0.461,-0.37 0.462,-0.356C0.463,-0.341 0.463,-0.329 0.463,-0.318L0.463,-0L0.425,-0L0.425,-0.325C0.425,-0.338 0.424,-0.354 0.422,-0.373C0.42,-0.392 0.414,-0.411 0.405,-0.429C0.395,-0.446 0.38,-0.461 0.361,-0.474C0.341,-0.487 0.314,-0.493 0.279,-0.493C0.25,-0.493 0.224,-0.488 0.201,-0.477C0.178,-0.466 0.159,-0.452 0.143,-0.433C0.127,-0.413 0.115,-0.391 0.107,-0.365C0.098,-0.338 0.094,-0.309 0.094,-0.278L0.094,-0L0.056,-0L0.056,-0.514Z" style="fill-rule:nonzero;"/>
        </g>
        <g transform="matrix(57.0833,0,0,57.0833,1346.62,422.19)">
            <path d="M0.481,-0.514L0.481,-0.027C0.481,0.002 0.478,0.029 0.471,0.057C0.464,0.084 0.453,0.107 0.437,0.128C0.42,0.149 0.398,0.165 0.369,0.178C0.34,0.19 0.304,0.196 0.26,0.196C0.233,0.196 0.207,0.193 0.183,0.188C0.159,0.182 0.138,0.173 0.12,0.161C0.102,0.148 0.088,0.132 0.077,0.112C0.066,0.091 0.059,0.066 0.058,0.036L0.096,0.036C0.098,0.059 0.104,0.078 0.113,0.094C0.122,0.11 0.134,0.123 0.15,0.134C0.165,0.144 0.181,0.151 0.2,0.156C0.219,0.161 0.239,0.163 0.26,0.163C0.295,0.163 0.325,0.158 0.349,0.147C0.372,0.136 0.391,0.123 0.405,0.106C0.419,0.089 0.429,0.069 0.435,0.048C0.44,0.026 0.443,0.004 0.443,-0.018L0.443,-0.136L0.441,-0.136C0.423,-0.098 0.399,-0.069 0.368,-0.049C0.337,-0.029 0.299,-0.019 0.255,-0.019C0.217,-0.019 0.184,-0.025 0.157,-0.039C0.129,-0.051 0.106,-0.07 0.088,-0.093C0.069,-0.116 0.055,-0.142 0.047,-0.173C0.038,-0.204 0.033,-0.237 0.033,-0.273C0.033,-0.307 0.038,-0.339 0.048,-0.37C0.057,-0.401 0.071,-0.428 0.09,-0.451C0.109,-0.474 0.132,-0.492 0.16,-0.506C0.187,-0.519 0.219,-0.526 0.255,-0.526C0.296,-0.526 0.333,-0.516 0.368,-0.495C0.402,-0.474 0.426,-0.445 0.441,-0.407L0.443,-0.407L0.443,-0.514L0.481,-0.514ZM0.255,-0.493C0.224,-0.493 0.197,-0.487 0.174,-0.474C0.151,-0.461 0.132,-0.445 0.117,-0.424C0.101,-0.403 0.09,-0.38 0.083,-0.354C0.075,-0.327 0.071,-0.3 0.071,-0.273C0.071,-0.243 0.075,-0.215 0.083,-0.188C0.09,-0.161 0.102,-0.137 0.118,-0.117C0.133,-0.097 0.153,-0.081 0.176,-0.07C0.199,-0.058 0.225,-0.052 0.255,-0.052C0.286,-0.052 0.314,-0.058 0.337,-0.07C0.36,-0.082 0.38,-0.098 0.396,-0.119C0.411,-0.14 0.423,-0.163 0.431,-0.19C0.438,-0.216 0.442,-0.244 0.442,-0.273C0.442,-0.302 0.438,-0.329 0.431,-0.356C0.423,-0.383 0.411,-0.406 0.396,-0.427C0.38,-0.447 0.36,-0.463 0.337,-0.475C0.314,-0.487 0.286,-0.493 0.255,-0.493Z" style="fill-rule:nonzero;"/>
        </g>
    </g>
</svg>
