<?xml version="1.0" encoding="UTF-8" standalone="no"?>
<!DOCTYPE svg PUBLIC "-//W3C//DTD SVG 1.1//EN" "http://www.w3.org/Graphics/SVG/1.1/DTD/svg11.dtd">
<svg width="100%" height="100%" viewBox="0 0 1128 161" version="1.1" xmlns="http://www.w3.org/2000/svg" xmlns:xlink="http://www.w3.org/1999/xlink" xml:space="preserve" xmlns:serif="http://www.serif.com/" style="fill-rule:evenodd;clip-rule:evenodd;stroke-linejoin:round;stroke-miterlimit:2;">
    <g transform="matrix(2,0,0,2,23.166,65.428)">
        <path d="M0,14.838L7.647,14.838C15.181,14.838 19.904,13.319 23.391,9.814C27.439,5.842 29.351,-0 29.351,-8.412C29.351,-16.708 27.439,-22.55 23.391,-26.522C19.904,-30.027 15.181,-31.546 7.647,-31.546L-11.583,-31.546L-11.583,46.384L0,46.384L0,14.838ZM0,3.739L0,-20.446L5.06,-20.446C14.394,-20.446 17.318,-17.526 17.318,-8.412C17.318,0.818 14.394,3.739 5.06,3.739L0,3.739ZM50.941,14.371L57.913,14.371L67.809,46.384L79.954,46.384L68.934,10.982C75.681,7.36 79.055,0.584 79.055,-9.23C79.055,-16.941 76.806,-22.9 72.307,-26.872C68.709,-30.144 64.323,-31.546 57.463,-31.546L39.358,-31.546L39.358,46.384L50.941,46.384L50.941,14.371ZM50.941,3.271L50.941,-20.446L55.214,-20.446C60.162,-20.446 62.411,-19.862 64.211,-17.993C66.122,-16.007 67.022,-12.852 67.022,-8.646C67.022,-4.323 66.122,-1.169 64.211,0.818C62.411,2.687 60.162,3.271 55.214,3.271L50.941,3.271ZM124.261,-31.546L90.299,-31.546L90.299,46.384L124.261,46.384L124.261,35.284L101.882,35.284L101.882,11.216L118.413,11.216L118.413,0.117L101.882,0.117L101.882,-20.446L124.261,-20.446L124.261,-31.546ZM173.738,-3.382L173.738,-8.529C173.738,-23.835 166.203,-32.714 153.383,-32.714C146.411,-32.714 140.789,-30.144 137.527,-25.47C134.041,-20.563 133.142,-16.24 133.142,-3.856L133.142,17.993C133.142,29.559 133.929,34.116 136.74,38.906C140.001,44.514 145.961,47.552 153.496,47.552C166.99,47.552 174.075,38.673 174.075,21.731L174.075,16.234L162.38,16.234C162.267,21.959 162.155,26.522 161.705,28.508C160.468,33.649 157.657,36.219 153.383,36.219C150.01,36.219 147.086,34.233 145.961,31.195C145.062,28.625 144.724,25.587 144.724,19.628L144.724,-6.309C144.724,-12.618 145.062,-14.955 146.524,-17.526C147.761,-19.979 150.235,-21.381 153.383,-21.381C159.119,-21.381 162.155,-16.825 162.155,-7.828L162.155,-3.382L173.738,-3.382ZM218.943,-31.546L184.981,-31.546L184.981,46.384L218.943,46.384L218.943,35.284L196.564,35.284L196.564,11.216L213.095,11.216L213.095,0.117L196.564,0.117L196.564,-20.446L218.943,-20.446L218.943,-31.546ZM239.633,-31.546L228.05,-31.546L228.05,46.384L262.686,46.384L262.686,35.284L239.633,35.284L239.633,-31.546ZM304.968,-31.546L271.007,-31.546L271.007,46.384L304.968,46.384L304.968,35.284L282.59,35.284L282.59,11.216L299.12,11.216L299.12,0.117L282.59,0.117L282.59,-20.446L304.968,-20.446L304.968,-31.546ZM325.658,14.371L332.63,14.371L342.526,46.384L354.671,46.384L343.651,10.982C350.398,7.36 353.772,0.584 353.772,-9.23C353.772,-16.941 351.523,-22.9 347.024,-26.872C343.426,-30.144 339.04,-31.546 332.18,-31.546L314.075,-31.546L314.075,46.384L325.658,46.384L325.658,14.371ZM325.658,3.271L325.658,-20.446L329.931,-20.446C334.879,-20.446 337.128,-19.862 338.928,-17.993C340.839,-16.007 341.739,-12.852 341.739,-8.646C341.739,-4.323 340.839,-1.169 338.928,0.818C337.128,2.687 334.879,3.271 329.931,3.271L325.658,3.271ZM394.029,29.442L397.177,46.384L409.098,46.384L393.916,-31.546L378.06,-31.546L363.666,46.384L375.024,46.384L378.06,29.442L394.029,29.442ZM392.117,18.343L379.859,18.343L385.932,-16.591L392.117,18.343ZM436.311,-20.446L450.93,-20.446L450.93,-31.546L410.222,-31.546L410.222,-20.446L424.728,-20.446L424.728,46.384L436.311,46.384L436.311,-20.446ZM499.846,-6.777C499.846,-15.539 498.609,-20.797 495.573,-25.237C492.199,-30.144 486.577,-32.714 479.38,-32.714C472.183,-32.714 466.56,-30.144 463.186,-25.237C460.15,-20.797 458.913,-15.539 458.913,-6.777L458.913,21.614C458.913,30.377 460.15,35.635 463.186,40.075C466.56,44.982 472.183,47.552 479.38,47.552C486.577,47.552 492.199,44.982 495.573,40.075C498.609,35.635 499.846,30.377 499.846,21.614L499.846,-6.777ZM470.496,-6.543C470.496,-12.735 470.833,-14.838 471.958,-17.175C473.307,-19.745 476.118,-21.381 479.38,-21.381C482.641,-21.381 485.452,-19.745 486.802,-17.175C488.039,-14.722 488.263,-12.852 488.263,-6.543L488.263,21.381C488.263,27.69 488.039,29.559 486.802,32.013C485.452,34.583 482.641,36.219 479.38,36.219C476.118,36.219 473.307,34.583 471.958,32.013C470.833,29.676 470.496,27.573 470.496,21.381L470.496,-6.543ZM523.236,14.371L530.208,14.371L540.104,46.384L552.25,46.384L541.229,10.982C547.976,7.36 551.35,0.584 551.35,-9.23C551.35,-16.941 549.101,-22.9 544.603,-26.872C541.004,-30.144 536.618,-31.546 529.759,-31.546L511.654,-31.546L511.654,46.384L523.236,46.384L523.236,14.371ZM523.236,3.271L523.236,-20.446L527.51,-20.446C532.458,-20.446 534.707,-19.862 536.506,-17.993C538.418,-16.007 539.317,-12.852 539.317,-8.646C539.317,-4.323 538.418,-1.169 536.506,0.818C534.707,2.687 532.458,3.271 527.51,3.271L523.236,3.271Z" style="fill:white;fill-rule:nonzero;"/>
    </g>
</svg>
