<svg id="Ebene_1" data-name="Ebene 1" xmlns="http://www.w3.org/2000/svg" viewBox="0 0 425.2 169.58"><defs><style>.cls-1{fill:#1d1d1b;}</style></defs><path class="cls-1" d="M380.52,48.69V33h2.83c3.29,0,4.78.38,6,1.62s1.87,3.42,1.87,6.21-.6,5-1.87,6.28-2.68,1.63-6,1.63Zm0,7.37h4.62l6.57,21.25h8.06l-7.31-23.5c4.48-2.41,6.72-6.9,6.72-13.42,0-5.12-1.5-9.07-4.48-11.71-2.39-2.17-5.3-3.1-9.85-3.1h-12V77.31h7.69Zm-35-13.88c0-4.12.22-5.51,1-7.06a5.74,5.74,0,0,1,9.85,0c.82,1.63,1,2.87,1,7.06V60.71c0,4.19-.15,5.43-1,7.06a5.74,5.74,0,0,1-9.85,0c-.75-1.55-1-3-1-7.06ZM365,42c0-5.82-.82-9.31-2.84-12.25-2.24-3.26-6-5-10.75-5s-8.51,1.71-10.74,5c-2,2.94-2.84,6.43-2.84,12.25V60.87c0,5.81.82,9.3,2.84,12.25,2.23,3.26,6,5,10.74,5s8.51-1.7,10.75-5c2-3,2.84-6.44,2.84-12.25ZM322.82,33h9.7V25.58h-27V33h9.63V77.31h7.69ZM293.48,58.69h-8.13l4-23.18Zm1.27,7.37,2.09,11.25h7.91L294.68,25.58H284.15L274.6,77.31h7.54l2-11.25ZM249.37,48.69V33h2.83c3.29,0,4.78.38,6,1.62S260,38,260,40.78s-.6,5-1.87,6.28-2.68,1.63-6,1.63Zm0,7.37H254l6.57,21.25h8.07l-7.32-23.5c4.48-2.41,6.72-6.9,6.72-13.42,0-5.12-1.49-9.07-4.48-11.71-2.39-2.17-5.3-3.1-9.85-3.1h-12V77.31h7.69ZM235.63,25.58H213.09V77.31h22.54V69.94H220.78V54h11V46.6h-11V33h14.85Zm-43.37,0h-7.68V77.31h23V69.94H192.26Zm-13.73,0H156V77.31h22.54V69.94H163.68V54h11V46.6h-11V33h14.85Zm-30,18.69V40.86c0-10.16-5-16.06-13.52-16.06-4.62,0-8.36,1.71-10.52,4.81-2.31,3.26-2.91,6.13-2.91,14.35v14.5c0,7.68.52,10.7,2.39,13.88,2.16,3.73,6.12,5.74,11.12,5.74,9,0,13.66-5.89,13.66-17.14V57.29H141a59.19,59.19,0,0,1-.45,8.15c-.82,3.41-2.69,5.12-5.53,5.12a5.17,5.17,0,0,1-4.92-3.34c-.6-1.7-.82-3.72-.82-7.67V42.33c0-4.19.22-5.74,1.19-7.44A4.82,4.82,0,0,1,135,32.33c3.81,0,5.83,3,5.83,9v3ZM115.68,25.58H93.14V77.31h22.54V69.94H100.83V54h11V46.6h-11V33h14.85ZM67,48.69V33h2.83c3.29,0,4.78.38,6,1.62s1.87,3.42,1.87,6.21-.6,5-1.87,6.28-2.68,1.63-6,1.63Zm0,7.37h4.62l6.57,21.25h8.06L79,53.81c4.48-2.41,6.72-6.9,6.72-13.42,0-5.12-1.5-9.07-4.48-11.71-2.39-2.17-5.3-3.1-9.85-3.1h-12V77.31H67ZM33.2,49V33h3.36c6.2,0,8.14,1.94,8.14,8S42.76,49,36.56,49Zm0,7.37h5.08c5,0,8.13-1,10.45-3.34,2.68-2.63,4-6.51,4-12.1s-1.27-9.38-4-12c-2.32-2.32-5.45-3.33-10.45-3.33H25.51V77.31H33.2Z"/><path class="cls-1" d="M32,107.49v-.35c0-1.93-.68-2.91-2-2.91a1.64,1.64,0,0,0-1.53.83,4.21,4.21,0,0,0-.4,2.41V113a7.29,7.29,0,0,0,.27,2.49A1.74,1.74,0,0,0,30,116.6,1.86,1.86,0,0,0,31.86,115a10,10,0,0,0,.15-2h2.61v.58C34.62,117.13,33,119,30,119a4.11,4.11,0,0,1-3.74-1.86c-.63-1-.81-2-.81-4.49V108c0-2.66.2-3.58,1-4.64A4.21,4.21,0,0,1,30,101.79c2.86,0,4.54,1.91,4.54,5.2v.5Z"/><path class="cls-1" d="M46.47,113.47a6.34,6.34,0,0,1-1,4A4.19,4.19,0,0,1,41.9,119a4.21,4.21,0,0,1-3.62-1.61,6.35,6.35,0,0,1-1-4v-6.1a6.38,6.38,0,0,1,1-4,4.24,4.24,0,0,1,3.62-1.61,4.22,4.22,0,0,1,3.61,1.61,6.38,6.38,0,0,1,1,4Zm-6.56,0a4.59,4.59,0,0,0,.33,2.28,2,2,0,0,0,3.31,0,4.28,4.28,0,0,0,.33-2.28v-6a4.31,4.31,0,0,0-.33-2.29,2,2,0,0,0-3.31,0,4.66,4.66,0,0,0-.33,2.29Z"/><path class="cls-1" d="M61.63,118.79H59.17V106.46l-2.92,12.33H54.8l-2.89-12.33v12.33H49.45V102.05h3.79l2.31,10.51,2.34-10.51h3.74Z"/><path class="cls-1" d="M77,118.79H74.53V106.46l-2.92,12.33H70.16l-2.89-12.33v12.33H64.81V102.05H68.6l2.31,10.51,2.34-10.51H77Z"/><path class="cls-1" d="M89,102.05v11.34c0,2.11-.25,3.19-1,4.14a4.75,4.75,0,0,1-7,0c-.71-1-1-2-1-4.14V102.05h2.59v11.77c0,2,.52,2.78,1.86,2.78s1.83-.8,1.83-2.78V102.05Z"/><path class="cls-1" d="M101.48,118.79H99.17l-4.52-11.15v11.15H92.19V102.05H94.8L99,112.46V102.05h2.46Z"/><path class="cls-1" d="M107.2,118.79h-2.58V102.05h2.58Z"/><path class="cls-1" d="M115.46,118.79h-2.58V104.43h-3.24v-2.38h9.08v2.38h-3.26Z"/><path class="cls-1" d="M127.06,118.79h-2.59v-6.53l-3.76-10.21h2.86l2.23,7.07,2.31-7.07h2.81l-3.86,10.21Z"/><path class="cls-1" d="M144.38,106.71c-.41-1.65-1.16-2.48-2.21-2.48a1.66,1.66,0,0,0-1.69,1.71,2.55,2.55,0,0,0,.71,1.68,12,12,0,0,0,2.21,1.83,13.78,13.78,0,0,1,2.48,2.26,4.87,4.87,0,0,1,1.08,3.06c0,2.54-1.86,4.27-4.59,4.27s-4.55-1.53-5.07-4.72l2.48-.73c.33,2,1.21,3,2.59,3a1.81,1.81,0,0,0,1.9-1.9c0-1.06-.52-1.74-2.48-3.27-2.33-1.83-2.44-1.93-3.06-2.73a4.57,4.57,0,0,1-.93-2.79,4.08,4.08,0,0,1,4.37-4.12c2.38,0,4,1.44,4.69,4.2Z"/><path class="cls-1" d="M152,118.79h-2.58V102.05h4.29a4.72,4.72,0,0,1,3.52,1.07,6.4,6.4,0,0,1,0,7.81,4.72,4.72,0,0,1-3.52,1.08H152Zm1.13-9.16c2.09,0,2.74-.63,2.74-2.61s-.65-2.59-2.74-2.59H152v5.2Z"/><path class="cls-1" d="M163,115.15l-.67,3.64h-2.54L163,102.05h3.54L170,118.79h-2.66l-.7-3.64Zm1.76-9.89-1.36,7.5h2.74Z"/><path class="cls-1" d="M178.56,107.49v-.35c0-1.93-.68-2.91-2-2.91a1.64,1.64,0,0,0-1.53.83,4.21,4.21,0,0,0-.4,2.41V113a7.29,7.29,0,0,0,.27,2.49,1.75,1.75,0,0,0,1.66,1.07,1.86,1.86,0,0,0,1.86-1.65,10,10,0,0,0,.15-2h2.61v.58c0,3.64-1.58,5.55-4.59,5.55a4.11,4.11,0,0,1-3.74-1.86c-.63-1-.81-2-.81-4.49V108c0-2.66.2-3.58,1-4.64a4.21,4.21,0,0,1,3.54-1.56c2.86,0,4.54,1.91,4.54,5.2v.5Z"/><path class="cls-1" d="M191.61,104.43h-5v4.42h3.68v2.38h-3.68v5.17h5v2.39H184V102.05h7.58Z"/><path class="cls-1" d="M201.42,118.79h-2.58V102.05h7.65v2.38h-5.07V109h3.77v2.38h-3.77Z"/><path class="cls-1" d="M217.84,113.47a6.34,6.34,0,0,1-1,4,4.85,4.85,0,0,1-7.22,0,6.34,6.34,0,0,1-1-4v-6.1a6.38,6.38,0,0,1,1-4,4.85,4.85,0,0,1,7.22,0,6.38,6.38,0,0,1,1,4Zm-6.55,0a4.63,4.63,0,0,0,.32,2.28,2,2,0,0,0,3.32,0,4.42,4.42,0,0,0,.32-2.28v-6a4.44,4.44,0,0,0-.32-2.29,2,2,0,0,0-3.32,0,4.7,4.7,0,0,0-.32,2.29Z"/><path class="cls-1" d="M223.44,118.79h-2.59V102.05h4a4.64,4.64,0,0,1,3.31,1,4.69,4.69,0,0,1,1.51,3.79q0,3.16-2.26,4.34l2.46,7.61H227.2L225,111.91h-1.55Zm.95-9.26c1.1,0,1.61-.13,2-.53a2.82,2.82,0,0,0,.62-2,2.77,2.77,0,0,0-.62-2c-.4-.4-.91-.53-2-.53h-.95v5.1Z"/><path class="cls-1" d="M89.54,130.31h-5v4.42h3.69v2.38H84.54v5.17h5v2.39H82V127.92h7.58Z"/><path class="cls-1" d="M101.23,144.67H98.92L94.4,133.52v11.15H91.94V127.92h2.61l4.22,10.42V127.92h2.46Z"/><path class="cls-1" d="M109.49,144.67H106.9V130.31h-3.23v-2.39h9.08v2.39h-3.26Z"/><path class="cls-1" d="M117.75,144.67h-2.59V127.92h4a4.64,4.64,0,0,1,3.32,1,4.72,4.72,0,0,1,1.5,3.79q0,3.17-2.26,4.34l2.46,7.61h-2.71l-2.21-6.88h-1.55Zm1-9.27c1.1,0,1.61-.12,2-.52a2.83,2.83,0,0,0,.63-2,2.76,2.76,0,0,0-.63-2c-.4-.41-.91-.53-2-.53h-1v5.09Z"/><path class="cls-1" d="M134.46,130.31h-5v4.42h3.69v2.38h-3.69v5.17h5v2.39h-7.58V127.92h7.58Z"/><path class="cls-1" d="M139.46,144.67h-2.59V127.92h4.29a4.72,4.72,0,0,1,3.52,1.08,6.4,6.4,0,0,1,0,7.81,4.72,4.72,0,0,1-3.52,1.08h-1.7Zm1.13-9.17c2.08,0,2.73-.62,2.73-2.61s-.65-2.58-2.73-2.58h-1.13v5.19Z"/><path class="cls-1" d="M151.18,144.67h-2.59V127.92h4a4.64,4.64,0,0,1,3.32,1,4.72,4.72,0,0,1,1.5,3.79q0,3.17-2.26,4.34l2.46,7.61h-2.71l-2.21-6.88h-1.55Zm.95-9.27c1.11,0,1.61-.12,2-.52a2.79,2.79,0,0,0,.63-2,2.71,2.71,0,0,0-.63-2c-.4-.41-.9-.53-2-.53h-.95v5.09Z"/><path class="cls-1" d="M167.89,130.31h-5v4.42h3.69v2.38H162.9v5.17h5v2.39h-7.58V127.92h7.58Z"/><path class="cls-1" d="M179.59,144.67h-2.31l-4.52-11.15v11.15H170.3V127.92h2.61l4.22,10.42V127.92h2.46Z"/><path class="cls-1" d="M190.33,130.31h-5v4.42H189v2.38h-3.69v5.17h5v2.39h-7.58V127.92h7.58Z"/><path class="cls-1" d="M201.6,127.92v11.35c0,2.11-.25,3.19-.95,4.14a4.77,4.77,0,0,1-7,0c-.7-.95-.95-2-.95-4.14V127.92h2.59V139.7c0,2,.52,2.78,1.85,2.78s1.84-.8,1.84-2.78V127.92Z"/><path class="cls-1" d="M207.35,144.67h-2.59V127.92h4a4.64,4.64,0,0,1,3.32,1,4.72,4.72,0,0,1,1.5,3.79q0,3.17-2.26,4.34l2.46,7.61h-2.71l-2.21-6.88h-1.55Zm1-9.27c1.11,0,1.61-.12,2-.52a2.79,2.79,0,0,0,.63-2,2.71,2.71,0,0,0-.63-2c-.4-.41-.9-.53-2-.53h-1v5.09Z"/><path class="cls-1" d="M222.86,132.59c-.4-1.65-1.16-2.48-2.21-2.48a1.66,1.66,0,0,0-1.68,1.7,2.54,2.54,0,0,0,.7,1.69,12.92,12.92,0,0,0,2.21,1.83,13.94,13.94,0,0,1,2.49,2.26,4.92,4.92,0,0,1,1.07,3.06c0,2.54-1.85,4.27-4.59,4.27s-4.54-1.53-5.07-4.72l2.49-.73c.32,2,1.2,3,2.58,3a1.82,1.82,0,0,0,1.91-1.91c0-1-.53-1.73-2.49-3.26-2.33-1.83-2.43-1.93-3.06-2.74a4.52,4.52,0,0,1-.93-2.78,4.08,4.08,0,0,1,4.37-4.12c2.39,0,4,1.43,4.69,4.19Z"/><path class="cls-1" d="M230.44,137.29v7.38h-2.59V127.92h2.59v7h3.69v-7h2.58v16.75h-2.58v-7.38Z"/><path class="cls-1" d="M242.46,144.67h-2.58V127.92h2.58Z"/><path class="cls-1" d="M248.23,144.67h-2.58V127.92h4.29a4.68,4.68,0,0,1,3.51,1.08,6.36,6.36,0,0,1,0,7.81,4.68,4.68,0,0,1-3.51,1.08h-1.71Zm1.13-9.17c2.09,0,2.74-.62,2.74-2.61s-.65-2.58-2.74-2.58h-1.13v5.19Z"/><path class="cls-1" d="M271.45,137.19a8.64,8.64,0,0,1-1.33,4.16,3.13,3.13,0,0,0,1.71,1.06v2.51a5,5,0,0,1-3.17-1.66,4.3,4.3,0,0,1-3.28,1.58,3.93,3.93,0,0,1-3.82-4.11c0-1.54.65-2.94,2.23-4.8a8.73,8.73,0,0,1-1.1-4c0-2.44,1.43-4.14,3.49-4.14a3.17,3.17,0,0,1,3.11,3.44,5,5,0,0,1-1,2.88c-.4.58-.5.71-1.68,2.16a14.56,14.56,0,0,0,1.9,3.26,6,6,0,0,0,.68-2.58Zm-7.33,3.21a1.81,1.81,0,0,0,1.51,2,2.05,2.05,0,0,0,1.55-.85,12.43,12.43,0,0,1-2.26-3.37A3.84,3.84,0,0,0,264.12,140.4Zm2.84-9.62c0-.85-.35-1.35-1-1.35s-1.11.65-1.11,1.71a7.06,7.06,0,0,0,.66,2.91A5.16,5.16,0,0,0,267,130.78Z"/><path class="cls-1" d="M281.84,144.67h-2.58V127.92h4.29a4.69,4.69,0,0,1,3.51,1.08,6.4,6.4,0,0,1,0,7.81,4.69,4.69,0,0,1-3.51,1.08h-1.71ZM283,135.5c2.08,0,2.74-.62,2.74-2.61s-.66-2.58-2.74-2.58h-1.13v5.19Z"/><path class="cls-1" d="M293.56,144.67H291V127.92h4a4.6,4.6,0,0,1,3.31,1,4.69,4.69,0,0,1,1.51,3.79c0,2.11-.76,3.56-2.26,4.34l2.46,7.61h-2.71l-2.21-6.88h-1.56Zm1-9.27c1.1,0,1.6-.12,2-.52a2.79,2.79,0,0,0,.63-2,2.71,2.71,0,0,0-.63-2c-.4-.41-.9-.53-2-.53h-1v5.09Z"/><path class="cls-1" d="M311.68,139.34a6.36,6.36,0,0,1-.95,4,4.86,4.86,0,0,1-7.23,0,6.36,6.36,0,0,1-.95-4v-6.1a6.35,6.35,0,0,1,.95-4,4.86,4.86,0,0,1,7.23,0,6.35,6.35,0,0,1,.95,4Zm-6.55-.05a4.64,4.64,0,0,0,.33,2.29,2,2,0,0,0,3.31,0,4.31,4.31,0,0,0,.33-2.29v-6a4.28,4.28,0,0,0-.33-2.28,2,2,0,0,0-3.31,0,4.59,4.59,0,0,0-.33,2.28Z"/><path class="cls-1" d="M319.66,144.67h-2.58V130.31h-3.24v-2.39h9.09v2.39h-3.27Z"/><path class="cls-1" d="M334.22,139.34a6.36,6.36,0,0,1-1,4,4.86,4.86,0,0,1-7.23,0,6.36,6.36,0,0,1-1-4v-6.1a6.35,6.35,0,0,1,1-4,4.86,4.86,0,0,1,7.23,0,6.35,6.35,0,0,1,1,4Zm-6.55-.05a4.64,4.64,0,0,0,.33,2.29,2,2,0,0,0,3.31,0,4.31,4.31,0,0,0,.33-2.29v-6a4.28,4.28,0,0,0-.33-2.28,2,2,0,0,0-3.31,0,4.59,4.59,0,0,0-.33,2.28Z"/><path class="cls-1" d="M342.2,144.67h-2.58V130.31h-3.24v-2.39h9.09v2.39H342.2Z"/><path class="cls-1" d="M353.77,144.67h-2.58v-6.53l-3.77-10.22h2.87l2.23,7.08,2.31-7.08h2.81l-3.87,10.22Z"/><path class="cls-1" d="M362.53,144.67H360V127.92h4.29a4.68,4.68,0,0,1,3.51,1.08,6.4,6.4,0,0,1,0,7.81,4.68,4.68,0,0,1-3.51,1.08h-1.71Zm1.13-9.17c2.09,0,2.74-.62,2.74-2.61s-.65-2.58-2.74-2.58h-1.13v5.19Z"/><path class="cls-1" d="M374.28,144.67h-2.59V127.92h2.59Z"/><path class="cls-1" d="M386.75,144.67h-2.31l-4.51-11.15v11.15h-2.46V127.92h2.61l4.21,10.42V127.92h2.46Z"/><path class="cls-1" d="M398.85,136.36v8.31h-1.33l-.48-1.43a3.49,3.49,0,0,1-3.13,1.68,3.81,3.81,0,0,1-3.47-2c-.55-1.08-.73-2.16-.73-4.47v-4.62c0-2.66.21-3.61,1-4.64a4.22,4.22,0,0,1,3.54-1.56,4.12,4.12,0,0,1,3.94,2.24,7.31,7.31,0,0,1,.61,3.46h-2.59c0-2.31-.58-3.26-2-3.26a1.63,1.63,0,0,0-1.53.85,4.55,4.55,0,0,0-.38,2.41v5.12a8.89,8.89,0,0,0,.28,2.74,1.8,1.8,0,0,0,1.75,1.25c1.36,0,1.94-1,1.94-3.31v-.68h-2.14v-2.13Z"/></svg>