<?xml version="1.0" encoding="UTF-8" standalone="no"?>
<!DOCTYPE svg PUBLIC "-//W3C//DTD SVG 1.1//EN" "http://www.w3.org/Graphics/SVG/1.1/DTD/svg11.dtd">
<svg width="100%" height="100%" viewBox="0 0 285 43" version="1.1" xmlns="http://www.w3.org/2000/svg" xmlns:xlink="http://www.w3.org/1999/xlink" xml:space="preserve" xmlns:serif="http://www.serif.com/" style="fill-rule:evenodd;clip-rule:evenodd;stroke-linejoin:round;stroke-miterlimit:2;">
    <g transform="matrix(0.75,0,0,0.75,0,0)">
        <g transform="matrix(1,0,0,1,-21.6845,-22.4272)">
            <path d="M380.52,48.69L380.52,33L383.35,33C386.64,33 388.13,33.38 389.35,34.62C390.57,35.86 391.22,38.04 391.22,40.83C391.22,43.62 390.62,45.83 389.35,47.11C388.08,48.39 386.67,48.74 383.35,48.74L380.52,48.69ZM380.52,56.06L385.14,56.06L391.71,77.31L399.77,77.31L392.46,53.81C396.94,51.4 399.18,46.91 399.18,40.39C399.18,35.27 397.68,31.32 394.7,28.68C392.31,26.51 389.4,25.58 384.85,25.58L372.85,25.58L372.85,77.31L380.54,77.31L380.52,56.06ZM345.52,42.18C345.52,38.06 345.74,36.67 346.52,35.12C347.555,33.39 349.429,32.328 351.445,32.328C353.461,32.328 355.335,33.39 356.37,35.12C357.19,36.75 357.37,37.99 357.37,42.18L357.37,60.71C357.37,64.9 357.22,66.14 356.37,67.77C355.335,69.5 353.461,70.562 351.445,70.562C349.429,70.562 347.555,69.5 346.52,67.77C345.77,66.22 345.52,64.77 345.52,60.71L345.52,42.18ZM365,42C365,36.18 364.18,32.69 362.16,29.75C359.92,26.49 356.16,24.75 351.41,24.75C346.66,24.75 342.9,26.46 340.67,29.75C338.67,32.69 337.83,36.18 337.83,42L337.83,60.87C337.83,66.68 338.65,70.17 340.67,73.12C342.9,76.38 346.67,78.12 351.41,78.12C356.15,78.12 359.92,76.42 362.16,73.12C364.16,70.12 365,66.68 365,60.87L365,42ZM322.82,33L332.52,33L332.52,25.58L305.52,25.58L305.52,33L315.15,33L315.15,77.31L322.84,77.31L322.82,33ZM293.48,58.69L285.35,58.69L289.35,35.51L293.48,58.69ZM294.75,66.06L296.84,77.31L304.75,77.31L294.68,25.58L284.15,25.58L274.6,77.31L282.14,77.31L284.14,66.06L294.75,66.06ZM249.37,48.69L249.37,33L252.2,33C255.49,33 256.98,33.38 258.2,34.62C259.42,35.86 260,38 260,40.78C260,43.56 259.4,45.78 258.13,47.06C256.86,48.34 255.45,48.69 252.13,48.69L249.37,48.69ZM249.37,56.06L254,56.06L260.57,77.31L268.64,77.31L261.32,53.81C265.8,51.4 268.04,46.91 268.04,40.39C268.04,35.27 266.55,31.32 263.56,28.68C261.17,26.51 258.26,25.58 253.71,25.58L241.71,25.58L241.71,77.31L249.4,77.31L249.37,56.06ZM235.63,25.58L213.09,25.58L213.09,77.31L235.63,77.31L235.63,69.94L220.78,69.94L220.78,54L231.78,54L231.78,46.6L220.78,46.6L220.78,33L235.63,33L235.63,25.58ZM192.26,25.58L184.58,25.58L184.58,77.31L207.58,77.31L207.58,69.94L192.26,69.94L192.26,25.58ZM178.53,25.58L156,25.58L156,77.31L178.54,77.31L178.54,69.94L163.68,69.94L163.68,54L174.68,54L174.68,46.6L163.68,46.6L163.68,33L178.53,33L178.53,25.58ZM148.53,44.27L148.53,40.86C148.53,30.7 143.53,24.8 135.01,24.8C130.39,24.8 126.65,26.51 124.49,29.61C122.18,32.87 121.58,35.74 121.58,43.96L121.58,58.46C121.58,66.14 122.1,69.16 123.97,72.34C126.13,76.07 130.09,78.08 135.09,78.08C144.09,78.08 148.75,72.19 148.75,60.94L148.75,57.29L141,57.29C141.038,60.014 140.887,62.737 140.55,65.44C139.73,68.85 137.86,70.56 135.02,70.56C132.845,70.596 130.87,69.255 130.1,67.22C129.5,65.52 129.28,63.5 129.28,59.55L129.28,42.33C129.28,38.14 129.5,36.59 130.47,34.89C131.349,33.228 133.123,32.225 135,32.33C138.81,32.33 140.83,35.33 140.83,41.33L140.83,44.33L148.53,44.27ZM115.68,25.58L93.14,25.58L93.14,77.31L115.68,77.31L115.68,69.94L100.83,69.94L100.83,54L111.83,54L111.83,46.6L100.83,46.6L100.83,33L115.68,33L115.68,25.58ZM67,48.69L67,33L69.83,33C73.12,33 74.61,33.38 75.83,34.62C77.05,35.86 77.7,38.04 77.7,40.83C77.7,43.62 77.1,45.83 75.83,47.11C74.56,48.39 73.15,48.74 69.83,48.74L67,48.69ZM67,56.06L71.62,56.06L78.19,77.31L86.25,77.31L79,53.81C83.48,51.4 85.72,46.91 85.72,40.39C85.72,35.27 84.22,31.32 81.24,28.68C78.85,26.51 75.94,25.58 71.39,25.58L59.39,25.58L59.39,77.31L67,77.31L67,56.06ZM33.2,49L33.2,33L36.56,33C42.76,33 44.7,34.94 44.7,41C44.7,47.06 42.76,49 36.56,49L33.2,49ZM33.2,56.37L38.28,56.37C43.28,56.37 46.41,55.37 48.73,53.03C51.41,50.4 52.73,46.52 52.73,40.93C52.73,35.34 51.46,31.55 48.73,28.93C46.41,26.61 43.28,25.6 38.28,25.6L25.51,25.6L25.51,77.31L33.2,77.31L33.2,56.37Z" style="fill:white;fill-rule:nonzero;"/>
        </g>
        <g transform="matrix(1,0,0,1,-23.5965,-24.001)">
            <g>
                <clipPath id="_clip1">
                    <path d="M33.198,56.475L38.273,56.475C43.273,56.475 46.407,55.467 48.721,53.141C51.407,50.505 52.676,46.628 52.676,41.045C52.676,35.54 51.407,31.663 48.721,29.027C46.407,26.701 43.273,25.693 38.273,25.693L25.511,25.693L25.511,77.409L33.198,77.409L33.198,56.475ZM33.198,49.109L33.198,33.059L36.556,33.059C42.75,33.059 44.691,34.997 44.691,41.045C44.691,47.171 42.75,49.109 36.556,49.109L33.198,49.109ZM67.004,56.165L71.631,56.165L78.198,77.409L86.258,77.409L78.944,53.916C83.422,51.513 85.661,47.015 85.661,40.502C85.661,35.385 84.168,31.431 81.183,28.795C78.795,26.624 75.884,25.693 71.332,25.693L59.317,25.693L59.317,77.409L67.004,77.409L67.004,56.165ZM67.004,48.799L67.004,33.059L69.84,33.059C73.123,33.059 74.616,33.447 75.81,34.687C77.078,36.005 77.675,38.099 77.675,40.89C77.675,43.759 77.078,45.852 75.81,47.171C74.616,48.411 73.123,48.799 69.84,48.799L67.004,48.799ZM115.661,25.693L93.123,25.693L93.123,77.409L115.661,77.409L115.661,70.043L100.81,70.043L100.81,54.071L111.78,54.071L111.78,46.705L100.81,46.705L100.81,33.059L115.661,33.059L115.661,25.693ZM148.495,44.383L148.495,40.968C148.495,30.811 143.495,24.918 134.988,24.918C130.36,24.918 126.629,26.624 124.465,29.725C122.152,32.982 121.555,35.85 121.555,44.069L121.555,58.568C121.555,66.244 122.077,69.268 123.943,72.447C126.107,76.169 130.062,78.185 135.062,78.185C144.017,78.185 148.719,72.292 148.719,61.049L148.719,57.401L140.958,57.401C140.883,61.2 140.808,64.228 140.51,65.546C139.689,68.958 137.823,70.664 134.988,70.664C132.749,70.664 130.808,69.346 130.062,67.33C129.465,65.624 129.241,63.608 129.241,59.654L129.241,42.441C129.241,38.254 129.465,36.703 130.435,34.997C131.256,33.369 132.898,32.439 134.988,32.439C138.794,32.439 140.808,35.463 140.808,41.433L140.808,44.383L148.495,44.383ZM178.494,25.693L155.957,25.693L155.957,77.409L178.494,77.409L178.494,70.043L163.643,70.043L163.643,54.071L174.614,54.071L174.614,46.705L163.643,46.705L163.643,33.059L178.494,33.059L178.494,25.693ZM192.225,25.693L184.538,25.693L184.538,77.409L207.523,77.409L207.523,70.043L192.225,70.043L192.225,25.693ZM235.583,25.693L213.045,25.693L213.045,77.409L235.583,77.409L235.583,70.043L220.732,70.043L220.732,54.071L231.702,54.071L231.702,46.705L220.732,46.705L220.732,33.059L235.583,33.059L235.583,25.693ZM249.313,56.165L253.94,56.165L260.506,77.409L268.567,77.409L261.254,53.916C265.731,51.513 267.97,47.015 267.97,40.502C267.97,35.385 266.478,31.431 263.492,28.795C261.104,26.624 258.194,25.693 253.642,25.693L241.627,25.693L241.627,77.409L249.313,77.409L249.313,56.165ZM249.313,48.799L249.313,33.059L252.149,33.059C255.433,33.059 256.924,33.447 258.118,34.687C259.388,36.005 259.984,38.099 259.984,40.89C259.984,43.759 259.388,45.852 258.118,47.171C256.924,48.411 255.433,48.799 252.149,48.799L249.313,48.799ZM294.686,66.167L296.775,77.409L304.686,77.409L294.611,25.693L284.089,25.693L274.536,77.409L282.074,77.409L284.089,66.167L294.686,66.167ZM293.417,58.801L285.283,58.801L289.313,35.618L293.417,58.801ZM322.745,33.059L332.447,33.059L332.447,25.693L305.432,25.693L305.432,33.059L315.059,33.059L315.059,77.409L322.745,77.409L322.745,33.059ZM364.909,42.131C364.909,36.316 364.088,32.827 362.073,29.88C359.834,26.624 356.103,24.918 351.327,24.918C346.551,24.918 342.819,26.624 340.58,29.88C338.565,32.827 337.744,36.316 337.744,42.131L337.744,60.972C337.744,66.787 338.565,70.276 340.58,73.222C342.819,76.479 346.551,78.185 351.327,78.185C356.103,78.185 359.834,76.479 362.073,73.222C364.088,70.276 364.909,66.787 364.909,60.972L364.909,42.131ZM345.431,42.286C345.431,38.176 345.655,36.781 346.401,35.23C347.297,33.524 349.162,32.439 351.327,32.439C353.491,32.439 355.357,33.524 356.252,35.23C357.073,36.858 357.222,38.099 357.222,42.286L357.222,60.817C357.222,65.004 357.073,66.244 356.252,67.872C355.357,69.578 353.491,70.664 351.327,70.664C349.162,70.664 347.297,69.578 346.401,67.872C345.655,66.322 345.431,64.926 345.431,60.817L345.431,42.286ZM380.431,56.165L385.058,56.165L391.625,77.409L399.685,77.409L392.372,53.916C396.849,51.513 399.088,47.015 399.088,40.502C399.088,35.385 397.595,31.431 394.61,28.795C392.222,26.624 389.312,25.693 384.76,25.693L372.744,25.693L372.744,77.409L380.431,77.409L380.431,56.165ZM380.431,48.799L380.431,33.059L383.267,33.059C386.551,33.059 388.043,33.447 389.237,34.687C390.506,36.005 391.103,38.099 391.103,40.89C391.103,43.759 390.506,45.852 389.237,47.171C388.043,48.411 386.551,48.799 383.267,48.799L380.431,48.799Z"/>
                </clipPath>
                <g clip-path="url(#_clip1)">
                    <path d="M175.181,141.569L249.335,141.538L249.335,-38.498L175.181,-38.467L175.181,141.569Z" style="fill:rgb(0,181,226);fill-rule:nonzero;"/>
                    <rect x="324.85" y="-38.467" width="74.835" height="180.036" style="fill:rgb(246,135,132);"/>
                    <rect x="25.511" y="-38.467" width="75.294" height="180.036" style="fill:rgb(67,39,62);"/>
                    <path d="M249.335,141.469L324.85,141.569L324.85,-38.467L249.335,-38.567L249.335,141.469Z" style="fill:rgb(252,85,85);fill-rule:nonzero;"/>
                    <rect x="100.805" y="-38.467" width="74.376" height="180.036" style="fill:rgb(251,186,0);"/>
                </g>
            </g>
        </g>
    </g>
</svg>
