<?xml version="1.0" encoding="UTF-8" standalone="no"?>
<!DOCTYPE svg PUBLIC "-//W3C//DTD SVG 1.1//EN" "http://www.w3.org/Graphics/SVG/1.1/DTD/svg11.dtd">
<svg width="100%" height="100%" viewBox="0 0 625 103" version="1.1" xmlns="http://www.w3.org/2000/svg" xmlns:xlink="http://www.w3.org/1999/xlink" xml:space="preserve" xmlns:serif="http://www.serif.com/" style="fill-rule:evenodd;clip-rule:evenodd;stroke-linejoin:round;stroke-miterlimit:2;">
    <g transform="matrix(1.79538,0,0,1.79538,-490.996,-617.047)">
        <g transform="matrix(74.2645,0,0,74.2645,272.704,398.824)">
            <path d="M0.048,-0L0.048,-0.712L0.201,-0.712C0.229,-0.712 0.254,-0.708 0.275,-0.701C0.296,-0.694 0.316,-0.681 0.333,-0.662C0.35,-0.643 0.362,-0.622 0.369,-0.597C0.376,-0.572 0.379,-0.538 0.379,-0.495C0.379,-0.463 0.377,-0.436 0.374,-0.414C0.37,-0.392 0.362,-0.371 0.35,-0.352C0.336,-0.329 0.317,-0.311 0.294,-0.298C0.271,-0.285 0.24,-0.278 0.202,-0.278L0.15,-0.278L0.15,-0L0.048,-0ZM0.15,-0.616L0.15,-0.374L0.199,-0.374C0.22,-0.374 0.236,-0.377 0.247,-0.383C0.258,-0.389 0.267,-0.397 0.272,-0.408C0.277,-0.418 0.281,-0.43 0.282,-0.445C0.283,-0.46 0.283,-0.476 0.283,-0.494C0.283,-0.511 0.283,-0.527 0.282,-0.542C0.281,-0.557 0.278,-0.57 0.273,-0.581C0.268,-0.592 0.26,-0.601 0.249,-0.607C0.238,-0.613 0.223,-0.616 0.203,-0.616L0.15,-0.616Z" style="fill-rule:nonzero;"/>
        </g>
        <g transform="matrix(74.2645,0,0,74.2645,302.929,398.824)">
            <path d="M0.15,-0.616L0.15,-0.394L0.208,-0.394C0.226,-0.394 0.24,-0.397 0.251,-0.402C0.262,-0.407 0.27,-0.414 0.276,-0.423C0.281,-0.432 0.285,-0.444 0.287,-0.458C0.289,-0.471 0.29,-0.487 0.29,-0.505C0.29,-0.523 0.289,-0.539 0.287,-0.553C0.285,-0.566 0.281,-0.578 0.275,-0.588C0.262,-0.607 0.238,-0.616 0.203,-0.616L0.15,-0.616ZM0.048,-0L0.048,-0.712L0.212,-0.712C0.332,-0.712 0.392,-0.642 0.392,-0.503C0.392,-0.461 0.386,-0.425 0.373,-0.396C0.36,-0.367 0.337,-0.343 0.304,-0.325L0.414,-0L0.306,-0L0.211,-0.304L0.15,-0.304L0.15,-0L0.048,-0Z" style="fill-rule:nonzero;"/>
        </g>
        <g transform="matrix(74.2645,0,0,74.2645,334.566,398.824)">
            <path d="M0.048,-0L0.048,-0.712L0.352,-0.712L0.352,-0.616L0.15,-0.616L0.15,-0.407L0.326,-0.407L0.326,-0.311L0.15,-0.311L0.15,-0.102L0.352,-0.102L0.352,-0L0.048,-0Z" style="fill-rule:nonzero;"/>
        </g>
        <g transform="matrix(74.2645,0,0,74.2645,362.044,398.824)">
            <path d="M0.372,-0.203L0.372,-0.159C0.372,-0.137 0.368,-0.116 0.36,-0.097C0.351,-0.077 0.34,-0.059 0.325,-0.044C0.31,-0.029 0.293,-0.017 0.274,-0.008C0.254,0.002 0.233,0.006 0.21,0.006C0.191,0.006 0.171,0.003 0.151,-0.002C0.131,-0.007 0.113,-0.017 0.097,-0.03C0.081,-0.043 0.068,-0.061 0.058,-0.082C0.047,-0.102 0.042,-0.129 0.042,-0.162L0.042,-0.554C0.042,-0.577 0.046,-0.599 0.054,-0.619C0.062,-0.639 0.073,-0.656 0.088,-0.671C0.103,-0.686 0.12,-0.697 0.141,-0.706C0.161,-0.714 0.183,-0.718 0.208,-0.718C0.256,-0.718 0.295,-0.702 0.325,-0.671C0.34,-0.656 0.351,-0.638 0.36,-0.617C0.368,-0.596 0.372,-0.573 0.372,-0.548L0.372,-0.508L0.27,-0.508L0.27,-0.542C0.27,-0.562 0.264,-0.579 0.253,-0.594C0.242,-0.609 0.226,-0.616 0.207,-0.616C0.182,-0.616 0.165,-0.608 0.157,-0.593C0.148,-0.577 0.144,-0.557 0.144,-0.533L0.144,-0.169C0.144,-0.148 0.149,-0.131 0.158,-0.117C0.167,-0.103 0.183,-0.096 0.206,-0.096C0.213,-0.096 0.22,-0.097 0.228,-0.1C0.235,-0.102 0.242,-0.106 0.249,-0.111C0.255,-0.116 0.26,-0.124 0.264,-0.133C0.268,-0.142 0.27,-0.154 0.27,-0.168L0.27,-0.203L0.372,-0.203Z" style="fill-rule:nonzero;"/>
        </g>
        <g transform="matrix(74.2645,0,0,74.2645,392.27,398.824)">
            <path d="M0.048,-0L0.048,-0.712L0.352,-0.712L0.352,-0.616L0.15,-0.616L0.15,-0.407L0.326,-0.407L0.326,-0.311L0.15,-0.311L0.15,-0.102L0.352,-0.102L0.352,-0L0.048,-0Z" style="fill-rule:nonzero;"/>
        </g>
        <g transform="matrix(74.2645,0,0,74.2645,419.747,398.824)">
            <path d="M0.048,-0L0.048,-0.712L0.15,-0.712L0.15,-0.102L0.352,-0.102L0.352,-0L0.048,-0Z" style="fill-rule:nonzero;"/>
        </g>
        <g transform="matrix(74.2645,0,0,74.2645,447.225,398.824)">
            <path d="M0.048,-0L0.048,-0.712L0.352,-0.712L0.352,-0.616L0.15,-0.616L0.15,-0.407L0.326,-0.407L0.326,-0.311L0.15,-0.311L0.15,-0.102L0.352,-0.102L0.352,-0L0.048,-0Z" style="fill-rule:nonzero;"/>
        </g>
        <g transform="matrix(74.2645,0,0,74.2645,474.703,398.824)">
            <path d="M0.15,-0.616L0.15,-0.394L0.208,-0.394C0.226,-0.394 0.24,-0.397 0.251,-0.402C0.262,-0.407 0.27,-0.414 0.276,-0.423C0.281,-0.432 0.285,-0.444 0.287,-0.458C0.289,-0.471 0.29,-0.487 0.29,-0.505C0.29,-0.523 0.289,-0.539 0.287,-0.553C0.285,-0.566 0.281,-0.578 0.275,-0.588C0.262,-0.607 0.238,-0.616 0.203,-0.616L0.15,-0.616ZM0.048,-0L0.048,-0.712L0.212,-0.712C0.332,-0.712 0.392,-0.642 0.392,-0.503C0.392,-0.461 0.386,-0.425 0.373,-0.396C0.36,-0.367 0.337,-0.343 0.304,-0.325L0.414,-0L0.306,-0L0.211,-0.304L0.15,-0.304L0.15,-0L0.048,-0Z" style="fill-rule:nonzero;"/>
        </g>
        <g transform="matrix(74.2645,0,0,74.2645,506.34,398.824)">
            <path d="M0.254,-0.249L0.204,-0.507L0.202,-0.507L0.152,-0.249L0.254,-0.249ZM0.002,-0L0.161,-0.712L0.246,-0.712L0.405,-0L0.303,-0L0.273,-0.153L0.134,-0.153L0.104,-0L0.002,-0Z" style="fill-rule:nonzero;"/>
        </g>
        <g transform="matrix(74.2645,0,0,74.2645,532.481,398.824)">
            <path d="M0.115,-0L0.115,-0.616L-0.003,-0.616L-0.003,-0.712L0.335,-0.712L0.335,-0.616L0.217,-0.616L0.217,-0L0.115,-0Z" style="fill-rule:nonzero;"/>
        </g>
        <g transform="matrix(74.2645,0,0,74.2645,556.246,398.824)">
            <path d="M0.042,-0.544C0.042,-0.573 0.047,-0.598 0.057,-0.62C0.067,-0.642 0.08,-0.66 0.097,-0.675C0.113,-0.689 0.131,-0.7 0.152,-0.707C0.172,-0.714 0.192,-0.718 0.213,-0.718C0.234,-0.718 0.254,-0.714 0.275,-0.707C0.295,-0.7 0.313,-0.689 0.33,-0.675C0.346,-0.66 0.359,-0.642 0.369,-0.62C0.379,-0.598 0.384,-0.573 0.384,-0.544L0.384,-0.168C0.384,-0.138 0.379,-0.112 0.369,-0.091C0.359,-0.07 0.346,-0.052 0.33,-0.038C0.313,-0.023 0.295,-0.012 0.275,-0.005C0.254,0.002 0.234,0.006 0.213,0.006C0.192,0.006 0.172,0.002 0.152,-0.005C0.131,-0.012 0.113,-0.023 0.097,-0.038C0.08,-0.052 0.067,-0.07 0.057,-0.091C0.047,-0.112 0.042,-0.138 0.042,-0.168L0.042,-0.544ZM0.144,-0.168C0.144,-0.143 0.151,-0.125 0.165,-0.114C0.178,-0.102 0.194,-0.096 0.213,-0.096C0.232,-0.096 0.248,-0.102 0.262,-0.114C0.275,-0.125 0.282,-0.143 0.282,-0.168L0.282,-0.544C0.282,-0.569 0.275,-0.587 0.262,-0.599C0.248,-0.61 0.232,-0.616 0.213,-0.616C0.194,-0.616 0.178,-0.61 0.165,-0.599C0.151,-0.587 0.144,-0.569 0.144,-0.544L0.144,-0.168Z" style="fill-rule:nonzero;"/>
        </g>
        <g transform="matrix(74.2645,0,0,74.2645,587.882,398.824)">
            <path d="M0.15,-0.616L0.15,-0.394L0.208,-0.394C0.226,-0.394 0.24,-0.397 0.251,-0.402C0.262,-0.407 0.27,-0.414 0.276,-0.423C0.281,-0.432 0.285,-0.444 0.287,-0.458C0.289,-0.471 0.29,-0.487 0.29,-0.505C0.29,-0.523 0.289,-0.539 0.287,-0.553C0.285,-0.566 0.281,-0.578 0.275,-0.588C0.262,-0.607 0.238,-0.616 0.203,-0.616L0.15,-0.616ZM0.048,-0L0.048,-0.712L0.212,-0.712C0.332,-0.712 0.392,-0.642 0.392,-0.503C0.392,-0.461 0.386,-0.425 0.373,-0.396C0.36,-0.367 0.337,-0.343 0.304,-0.325L0.414,-0L0.306,-0L0.211,-0.304L0.15,-0.304L0.15,-0L0.048,-0Z" style="fill-rule:nonzero;"/>
        </g>
    </g>
</svg>
