<?xml version="1.0" encoding="UTF-8"?>
<svg xmlns="http://www.w3.org/2000/svg" id="logo" viewBox="0 0 160 80">
  <defs>
    <style>.cls-1{fill:#fff;}.cls-2{fill:#a39d87;}.cls-3{fill:#00b5dd;}</style>
  </defs>
  <title>strasheg-center</title>
  <g id="strascheg-center">
    <path class="cls-1" d="M84.29,35A16.58,16.58,0,1,1,67.72,18.44,16.57,16.57,0,0,1,84.29,35Z"></path>
    <path class="cls-1" d="M118.73,35a16.58,16.58,0,1,1-16.57-16.58A16.57,16.57,0,0,1,118.73,35Z"></path>
    <path class="cls-1" d="M153.18,35A16.58,16.58,0,1,1,136.6,18.44,16.58,16.58,0,0,1,153.18,35Z"></path>
    <path class="cls-1" d="M40.1,35A16.58,16.58,0,1,1,23.53,18.44,16.57,16.57,0,0,1,40.1,35Z"></path>
    <path class="cls-2" d="M84.29,35a16.56,16.56,0,0,0-9-14.71,10.84,10.84,0,0,1,2.06,7H73.49c-.2-4.24-1.33-6.5-5.84-6.5a4.77,4.77,0,0,0-5.1,4.85c0,8.35,15,6.1,15,17.3a9.47,9.47,0,0,1-2.39,6.89A16.56,16.56,0,0,0,84.29,35ZM60.79,20a16.57,16.57,0,0,0-.91,29.66c-1.54-1.76-2.21-4.37-2.18-7.84h4c0,4.57,1.06,7.62,6.17,7.62,3.84,0,5.7-2.18,5.7-5.9,0-8.75-15.05-6.5-15.05-17.57a7.79,7.79,0,0,1,2.22-6Z"></path>
    <path d="M118.73,35a16.57,16.57,0,0,0-8.33-14.37c1.34,1.68,2,4.06,1.9,7.21h-4c.2-4.18-1.33-7.1-5.9-7.1A5.55,5.55,0,0,0,97,24.61c-.53,1.53-.92,6.1-.92,10.55,0,6,0,14.05,6.16,14.05,5.24,0,5.91-3.31,6.1-7.36h4c.14,3.74-.88,6.18-2.33,7.76A16.57,16.57,0,0,0,118.73,35ZM96,19.65a16.57,16.57,0,0,0,0,30.74c-4.09-3.11-4.09-9.34-4.09-15.23,0-3.32.13-8.56,1-11.08A9.57,9.57,0,0,1,96,19.65Z"></path>
    <path class="cls-3" d="M153.18,35a16.57,16.57,0,0,0-7.65-14c2.55,3.33,2.55,8.74,2.55,14.75H129V38.4c0,4.65,1.26,10.81,7.56,10.81,5,0,7.43-3.18,7.36-7.69h4.18a12.78,12.78,0,0,1-2.36,7.34A16.56,16.56,0,0,0,153.18,35Zm-24.94-14.3a16.55,16.55,0,0,0-.63,28.22C126,47,125,44.17,125,39.93V31.71c0-5.06,1.11-8.68,3.24-11ZM129,32.64H144.1c0-7.43-1.19-11.88-7.56-11.88S129,25.21,129,32.64Z"></path>
    <path d="M35.42,23.49A16.53,16.53,0,0,0,12.18,23c5.54,0,13.65,0,14,0h.12s0,.13-.08.3c0,0-8.92-.33-18.83,8.18a16.46,16.46,0,0,0,2,12.18c3.8-7.6,11.47-17.54,26.06-20.11Zm-18.79.18s-2.13-.18-4.89-.3a16.55,16.55,0,0,0-4,6.48,35.69,35.69,0,0,1,8.85-6.18ZM11,45.84a16.56,16.56,0,1,0,24.67-22.1c-3.31.55-18.74,4-24.67,22.1Z"></path>
    <path d="M9.57,56.86c0-.76-.2-1.22-1-1.22-.67,0-1.08.23-1.08,1,0,.91.46.94,1.15,1.44s1.53.71,1.53,1.9a1.45,1.45,0,0,1-1.63,1.63c-1.2,0-1.73-.65-1.68-1.85h.56c0,.68.05,1.39,1.15,1.39A1,1,0,0,0,9.6,60c0-.83-.55-1.07-1.44-1.61C7,57.66,6.92,57.3,6.91,56.69c0-1.07.67-1.51,1.67-1.51,1.27,0,1.55.79,1.55,1.68Z"></path>
    <polygon points="12.23 55.76 10.73 55.76 10.73 55.3 14.27 55.3 14.27 55.76 12.77 55.76 12.77 61.44 12.23 61.44 12.23 55.76 12.23 55.76"></polygon>
    <path d="M15.51,58.46v3H15V55.3h1.7c1.18,0,1.47.39,1.47,1.47,0,.77-.12,1.28-.95,1.46v0c.86.18.91.28.91,2.48,0,.23,0,.47.06.71h-.52c-.05-.18-.07-1.2-.08-1.53s.17-1.45-1-1.45Zm0-.46h.88c.82,0,1.2-.21,1.2-1.24,0-.84-.33-1-1-1H15.51V58Z"></path>
    <path d="M21.33,55.3l1.91,6.14h-.57l-.49-1.62h-2.4l-.49,1.62h-.54l1.94-6.14ZM22,59.36,21,55.9h0l-1,3.46Z"></path>
    <path d="M26.58,56.86c0-.76-.21-1.22-1-1.22-.66,0-1.08.23-1.08,1,0,.91.46.94,1.16,1.44s1.53.71,1.53,1.9a1.45,1.45,0,0,1-1.63,1.63c-1.2,0-1.74-.65-1.69-1.85h.56c0,.68.05,1.39,1.15,1.39A1,1,0,0,0,26.6,60c0-.83-.55-1.07-1.43-1.61-1.19-.74-1.25-1.1-1.25-1.71,0-1.07.66-1.51,1.66-1.51,1.28,0,1.55.79,1.55,1.68Z"></path>
    <path d="M28.1,58.37c0-1.66,0-3.19,1.85-3.19,1.49,0,1.52,1.23,1.52,1.78h-.55c0-.68-.19-1.32-1-1.32-1.29,0-1.31,1.1-1.31,2.73s0,2.73,1.31,2.73c.71,0,1-.63,1-1.42h.58c0,.44-.1,1.88-1.56,1.88-1.83,0-1.85-1.53-1.85-3.19Z"></path>
    <polygon points="32.48 61.44 32.48 55.3 33.02 55.3 33.02 58.05 35.44 58.05 35.44 55.3 35.98 55.3 35.98 61.44 35.44 61.44 35.44 58.51 33.02 58.51 33.02 61.44 32.48 61.44 32.48 61.44"></polygon>
    <polygon points="40.01 55.3 40.01 55.76 37.77 55.76 37.77 58.05 39.91 58.05 39.91 58.51 37.77 58.51 37.77 60.98 40.07 60.98 40.07 61.44 37.23 61.44 37.23 55.3 40.01 55.3 40.01 55.3"></polygon>
    <path d="M43.88,58.69H42.64v-.46h1.78V61.3a5.63,5.63,0,0,1-1.69.26c-2,0-1.85-2-1.85-3.19s-.15-3.19,1.85-3.19c1.17,0,1.78.5,1.75,1.69h-.54c0-.8-.35-1.23-1.21-1.23-1.32,0-1.31,1.18-1.31,2.73s0,2.73,1.31,2.73a3.3,3.3,0,0,0,1.15-.18V58.69Z"></path>
    <path d="M47.47,58.37c0-1.66,0-3.19,1.85-3.19,1.49,0,1.51,1.23,1.51,1.78h-.54c0-.68-.19-1.32-1-1.32C48,55.64,48,56.74,48,58.37s0,2.73,1.31,2.73c.71,0,1-.63,1-1.42h.58c0,.44-.11,1.88-1.56,1.88-1.84,0-1.85-1.53-1.85-3.19Z"></path>
    <polygon points="54.65 55.3 54.65 55.76 52.42 55.76 52.42 58.05 54.55 58.05 54.55 58.51 52.42 58.51 52.42 60.98 54.71 60.98 54.71 61.44 51.87 61.44 51.87 55.3 54.65 55.3 54.65 55.3"></polygon>
    <polygon points="55.66 61.44 55.66 55.3 56.5 55.3 58.99 60.69 59 60.67 59 55.3 59.55 55.3 59.55 61.44 58.72 61.44 56.22 55.99 56.21 56.01 56.21 61.44 55.66 61.44 55.66 61.44"></polygon>
    <polygon points="61.82 55.76 60.32 55.76 60.32 55.3 63.86 55.3 63.86 55.76 62.36 55.76 62.36 61.44 61.82 61.44 61.82 55.76 61.82 55.76"></polygon>
    <polygon points="67.39 55.3 67.39 55.76 65.16 55.76 65.16 58.05 67.29 58.05 67.29 58.51 65.16 58.51 65.16 60.98 67.45 60.98 67.45 61.44 64.61 61.44 64.61 55.3 67.39 55.3 67.39 55.3"></polygon>
    <path d="M68.87,58.46v3h-.54V55.3H70c1.18,0,1.48.39,1.48,1.47,0,.77-.13,1.28-1,1.46v0c.86.18.91.28.91,2.48,0,.23,0,.47.06.71H71c0-.18-.08-1.2-.09-1.53s.17-1.45-1-1.45Zm0-.46h.89c.81,0,1.2-.21,1.2-1.24,0-.84-.33-1-1-1H68.87V58Z"></path>
    <polygon points="74.47 55.3 77.06 55.3 77.06 55.76 75.01 55.76 75.01 58.05 76.92 58.05 76.92 58.51 75.01 58.51 75.01 61.44 74.47 61.44 74.47 55.3 74.47 55.3"></polygon>
    <path d="M79.56,55.18c1.84,0,1.85,1.53,1.85,3.19s0,3.19-1.85,3.19S77.71,60,77.71,58.37s0-3.19,1.85-3.19Zm0,5.92c1.29,0,1.31-1.1,1.31-2.73s0-2.73-1.31-2.73-1.31,1.1-1.31,2.73,0,2.73,1.31,2.73Z"></path>
    <path d="M83.05,58.46v3H82.5V55.3h1.69c1.19,0,1.48.39,1.48,1.47,0,.77-.12,1.28-1,1.46v0c.86.18.91.28.91,2.48,0,.23,0,.47.06.71h-.52c0-.18-.07-1.2-.08-1.53s.17-1.45-1-1.45Zm0-.46h.88c.82,0,1.2-.21,1.2-1.24,0-.84-.33-1-1-1H83.05V58Z"></path>
    <polygon points="91.48 55.3 91.48 55.76 89.25 55.76 89.25 58.05 91.38 58.05 91.38 58.51 89.25 58.51 89.25 60.98 91.54 60.98 91.54 61.44 88.7 61.44 88.7 55.3 91.48 55.3 91.48 55.3"></polygon>
    <polygon points="92.49 61.44 92.49 55.3 93.33 55.3 95.82 60.69 95.83 60.67 95.83 55.3 96.38 55.3 96.38 61.44 95.55 61.44 93.05 55.99 93.04 56.01 93.04 61.44 92.49 61.44 92.49 61.44"></polygon>
    <polygon points="98.65 55.76 97.15 55.76 97.15 55.3 100.69 55.3 100.69 55.76 99.19 55.76 99.19 61.44 98.65 61.44 98.65 55.76 98.65 55.76"></polygon>
    <path d="M101.93,58.46v3h-.54V55.3h1.69c1.18,0,1.48.39,1.48,1.47,0,.77-.13,1.28-1,1.46v0c.86.18.91.28.91,2.48,0,.23,0,.47.06.71h-.52c0-.18-.07-1.2-.08-1.53s.17-1.45-1-1.45Zm0-.46h.88c.82,0,1.2-.21,1.2-1.24,0-.84-.33-1-1-1h-1.11V58Z"></path>
    <polygon points="108.47 55.3 108.47 55.76 106.24 55.76 106.24 58.05 108.37 58.05 108.37 58.51 106.24 58.51 106.24 60.98 108.53 60.98 108.53 61.44 105.7 61.44 105.7 55.3 108.47 55.3 108.47 55.3"></polygon>
    <path d="M109.38,55.3h1.68c.51,0,1.35.07,1.35,1.49,0,1.23-.4,1.79-1.45,1.79h-1v2.86h-.54V55.3Zm.54,2.82h1c.57,0,.94-.27.94-1.23s-.45-1.13-.94-1.13h-1v2.36Z"></path>
    <path d="M113.73,58.46v3h-.54V55.3h1.69c1.18,0,1.48.39,1.48,1.47,0,.77-.13,1.28-1,1.46v0c.86.18.91.28.91,2.48,0,.23,0,.47.06.71h-.52c0-.18-.07-1.2-.08-1.53s.17-1.45-1-1.45Zm0-.46h.88c.82,0,1.2-.21,1.2-1.24,0-.84-.33-1-1-1h-1.11V58Z"></path>
    <polygon points="120.28 55.3 120.28 55.76 118.04 55.76 118.04 58.05 120.17 58.05 120.17 58.51 118.04 58.51 118.04 60.98 120.33 60.98 120.33 61.44 117.5 61.44 117.5 55.3 120.28 55.3 120.28 55.3"></polygon>
    <polygon points="121.29 61.44 121.29 55.3 122.12 55.3 124.61 60.69 124.63 60.67 124.63 55.3 125.17 55.3 125.17 61.44 124.35 61.44 121.85 55.99 121.83 56.01 121.83 61.44 121.29 61.44 121.29 61.44"></polygon>
    <polygon points="129.25 55.3 129.25 55.76 127.01 55.76 127.01 58.05 129.14 58.05 129.14 58.51 127.01 58.51 127.01 60.98 129.31 60.98 129.31 61.44 126.47 61.44 126.47 55.3 129.25 55.3 129.25 55.3"></polygon>
    <path d="M130.72,59.16c0,.8,0,1.94,1.25,1.94s1.24-1.14,1.24-1.94V55.3h.55v4.26c0,1.58-.83,2-1.79,2s-1.8-.42-1.8-2V55.3h.55v3.86Z"></path>
    <path d="M135.45,58.46v3h-.54V55.3h1.69c1.18,0,1.48.39,1.48,1.47,0,.77-.13,1.28-1,1.46v0c.85.18.9.28.9,2.48,0,.23.05.47.06.71h-.51c-.05-.18-.08-1.2-.09-1.53s.17-1.45-1-1.45Zm0-.46h.89c.81,0,1.19-.21,1.19-1.24,0-.84-.33-1-1-1h-1.11V58Z"></path>
    <path d="M141.79,56.86c0-.76-.2-1.22-1-1.22-.67,0-1.08.23-1.08,1,0,.91.46.94,1.15,1.44s1.53.71,1.53,1.9a1.45,1.45,0,0,1-1.63,1.63c-1.2,0-1.73-.65-1.68-1.85h.56c0,.68,0,1.39,1.15,1.39A1,1,0,0,0,141.82,60c0-.83-.55-1.07-1.44-1.61-1.19-.74-1.24-1.1-1.25-1.71,0-1.07.67-1.51,1.67-1.51,1.27,0,1.55.79,1.55,1.68Z"></path>
    <polygon points="143.44 61.44 143.44 55.3 143.99 55.3 143.99 58.05 146.4 58.05 146.4 55.3 146.94 55.3 146.94 61.44 146.4 61.44 146.4 58.51 143.99 58.51 143.99 61.44 143.44 61.44 143.44 61.44"></polygon>
    <polygon points="148.77 55.3 148.77 61.44 148.23 61.44 148.23 55.3 148.77 55.3 148.77 55.3"></polygon>
    <path d="M150,55.3h1.68c.51,0,1.35.07,1.35,1.49,0,1.23-.4,1.79-1.45,1.79h-1v2.86H150V55.3Zm.54,2.82h1c.58,0,.94-.27.94-1.23s-.45-1.13-.94-1.13h-1v2.36Z"></path>
  </g>
</svg>
